<svg width="1280" height="720" viewBox="0 0 1280 720" fill="none" xmlns="http://www.w3.org/2000/svg">
<g clip-path="url(#clip0_1_5)">
<rect width="1280" height="720" rx="20" fill="url(#paint0_linear_1_5)"/>
<g style="mix-blend-mode:screen" filter="url(#filter0_f_1_5)">
<path d="M-34.7324 837.132C-19.1207 851.147 3.87418 849.005 16.628 832.347L173.907 626.917C186.661 610.259 184.344 585.393 168.733 571.377V571.377C153.121 557.362 130.126 559.504 117.372 576.163L-39.9071 781.592C-52.6609 798.25 -50.3441 823.116 -34.7324 837.132V837.132Z" fill="url(#paint1_radial_1_5)"/>
</g>
<g style="mix-blend-mode:screen" filter="url(#filter1_f_1_5)">
<path d="M-173.888 710.179C-74.4156 767.7 46.4149 730.297 95.994 626.636L123.229 569.693C172.808 466.033 132.361 335.37 32.8883 277.849V277.849C-66.5845 220.328 -187.415 257.731 -236.994 361.391L-264.229 418.334C-313.808 521.994 -273.361 652.658 -173.888 710.179V710.179Z" fill="url(#paint2_radial_1_5)"/>
</g>
<g style="mix-blend-mode:screen" filter="url(#filter2_f_1_5)">
<path d="M1695.42 1275.43C1828.14 1287.41 1937.01 1189.09 1938.59 1055.84L1945.95 433.353C1947.53 300.1 1841.21 182.37 1708.49 170.396L1146.38 119.682C1013.66 107.707 904.788 206.023 903.212 339.275L895.853 961.763C894.277 1095.02 1000.59 1212.74 1133.32 1224.72L1695.42 1275.43Z" fill="url(#paint3_radial_1_5)"/>
</g>
<g style="mix-blend-mode:overlay">
<path d="M8.06383 588.152C-0.881291 645.277 13.372 743.554 141.946 679.663C302.664 599.8 760.119 440.653 658.307 747.391" stroke="white" stroke-width="0.697114"/>
<path d="M520.315 -274.075C628.683 174.507 -162.899 -84.9769 41.1779 -17.7022C592.343 163.991 370.525 576.567 608.894 784.936" stroke="white" stroke-width="0.697114"/>
<path d="M12.9869 563.653C7.10765 633.596 -3.94148 718.878 126.819 659.353C299.626 588.629 734.139 446.665 643.468 750.839" stroke="white" stroke-width="0.697114"/>
<path d="M18.243 538.754C15.4779 621.504 -20.9224 693.886 112.04 638.718C296.973 577.087 708.61 452.394 629.07 753.962" stroke="white" stroke-width="0.697114"/>
<path d="M23.7823 513.503C24.1796 609.048 -37.6205 668.627 97.5621 617.807C294.654 565.223 683.482 457.885 615.062 756.807" stroke="white" stroke-width="0.697114"/>
<path d="M29.5632 487.938C33.1709 596.266 -54.0771 643.138 83.342 596.657C292.629 553.074 658.713 463.178 601.404 759.412" stroke="white" stroke-width="0.697114"/>
<path d="M35.551 462.09C42.4173 583.19 -70.3267 617.45 69.3457 575.3C290.862 540.673 634.27 468.302 588.061 761.808" stroke="white" stroke-width="0.697114"/>
<path d="M41.7171 435.987C51.8901 569.847 -86.3975 591.592 55.545 553.764C289.324 528.046 610.125 473.286 575.005 764.023" stroke="white" stroke-width="0.697114"/>
<path d="M48.0367 409.652C61.5645 556.26 -102.314 565.585 41.9152 532.071C287.992 515.215 586.252 478.152 562.211 766.079" stroke="white" stroke-width="0.697114"/>
<path d="M54.4888 383.103C71.4194 542.447 -118.098 539.45 28.4355 510.241C286.844 502.201 562.631 482.918 549.659 767.995" stroke="white" stroke-width="0.697114"/>
<path d="M61.0552 356.359C81.4367 528.426 -133.765 513.203 15.0879 488.29C285.863 489.019 539.245 487.602 537.33 769.788" stroke="white" stroke-width="0.697114"/>
<path d="M67.7204 329.434C91.6005 514.211 -149.333 486.859 1.85707 466.233C285.032 475.685 516.077 492.217 525.208 771.472" stroke="white" stroke-width="0.697114"/>
<path d="M74.47 302.339C101.897 499.815 -164.815 460.431 -11.271 444.083C284.337 462.211 493.115 496.776 513.281 773.059" stroke="white" stroke-width="0.697114"/>
<path d="M82.6764 276.406C113.698 486.567 -178.838 435.248 -22.9239 423.17C285.152 449.927 471.73 502.61 502.921 775.88" stroke="white" stroke-width="0.697114"/>
<path d="M97.6291 256.665C132.293 479.499 -186.113 416.342 -27.8119 408.524C292.764 443.863 457.213 514.747 499.416 784.964" stroke="white" stroke-width="0.697114"/>
<path d="M112.748 236.835C151.102 472.328 -193.22 397.43 -32.5151 393.863C300.595 437.738 442.983 526.906 496.188 794.029" stroke="white" stroke-width="0.697114"/>
<path d="M128.004 216.903C170.096 465.042 -200.187 378.501 -37.0616 379.177C308.616 431.54 429.013 539.075 493.207 803.064" stroke="white" stroke-width="0.697114"/>
<path d="M143.376 196.863C189.254 457.636 -207.035 359.549 -41.4729 364.457C316.805 425.262 415.281 551.247 490.453 812.062" stroke="white" stroke-width="0.697114"/>
<path d="M158.847 176.712C208.558 450.104 -213.78 340.57 -45.7653 349.702C325.146 418.9 401.77 563.419 487.909 821.019" stroke="white" stroke-width="0.697114"/>
<path d="M174.404 156.448C227.997 442.446 -220.437 321.561 -49.9523 334.908C333.625 412.452 388.468 575.588 485.561 829.932" stroke="white" stroke-width="0.697114"/>
<path d="M190.036 136.07C247.557 434.66 -227.015 302.523 -54.0448 320.075C342.232 405.918 375.364 587.752 483.399 838.801" stroke="white" stroke-width="0.697114"/>
<path d="M210.245 110.699C271.743 421.868 -229.012 278.576 -53.5392 300.324C355.469 394.419 366.961 595.034 485.926 842.747" stroke="white" stroke-width="0.697114"/>
<path d="M238.722 76.2687C304.244 400.002 -222.738 245.654 -44.7457 271.589C377.026 373.887 366.949 593.365 496.833 837.702" stroke="white" stroke-width="0.697114"/>
<path d="M267.147 41.7327C336.74 378.017 -216.511 212.711 -35.9839 242.823C398.584 353.277 367.009 591.699 507.799 832.62" stroke="white" stroke-width="0.697114"/>
<path d="M295.518 7.08939C369.23 355.91 -210.334 179.744 -27.2556 214.024C420.141 332.586 367.139 590.035 518.822 827.499" stroke="white" stroke-width="0.697114"/>
<path d="M323.831 -27.6631C401.71 333.679 -204.21 146.753 -18.5634 185.19C441.693 311.813 367.336 588.37 529.9 822.337" stroke="white" stroke-width="0.697114"/>
<path d="M352.086 -62.5261C434.178 311.324 -198.139 113.735 -9.90824 156.321C463.241 290.956 367.6 586.702 541.033 817.132" stroke="white" stroke-width="0.697114"/>
<path d="M380.281 -97.5005C466.634 288.842 -192.124 80.6896 -1.29199 127.415C484.781 270.014 367.93 585.03 552.217 811.883" stroke="white" stroke-width="0.697114"/>
<path d="M408.415 -132.587C499.076 266.234 -186.164 47.6165 7.28444 98.4712C506.313 248.986 368.323 583.353 563.453 806.589" stroke="white" stroke-width="0.697114"/>
<path d="M436.485 -167.787C531.502 243.497 -180.262 14.5143 15.8197 69.4888C527.836 227.87 368.779 581.669 574.739 801.249" stroke="white" stroke-width="0.697114"/>
<path d="M464.492 -203.1C563.912 220.632 -174.417 -18.6171 24.3134 40.4672C549.348 206.668 369.298 579.979 586.074 795.861" stroke="white" stroke-width="0.697114"/>
<path d="M492.434 -238.527C596.304 197.638 -168.632 -51.7785 32.7644 11.4059C570.849 185.377 369.878 578.281 597.457 790.426" stroke="white" stroke-width="0.697114"/>
</g>
<g style="mix-blend-mode:screen" filter="url(#filter3_f_1_5)">
<path d="M728.63 488.812C727.73 498.649 735.007 506.729 744.885 506.858L1126.76 511.862C1136.64 511.991 1145.38 504.121 1146.28 494.284V494.284C1147.18 484.447 1139.9 476.367 1130.02 476.238L748.145 471.234C738.267 471.105 729.53 478.975 728.63 488.812V488.812Z" fill="url(#paint4_radial_1_5)"/>
</g>
<g filter="url(#filter4_ddd_1_5)">
<g filter="url(#filter5_b_1_5)">
<rect x="779.889" y="409" width="323.63" height="68" rx="15" fill="#041B41"/>
<rect x="781.778" y="410.889" width="319.852" height="64.2222" rx="13.1111" stroke="url(#paint5_linear_1_5)" stroke-width="3.77778"/>
</g>
<g filter="url(#filter6_d_1_5)">
<path d="M818.316 434.554V451.889H816.053V434.554H818.316ZM840.901 451.889H838.638L829.535 438.086V451.889H827.272V434.529H829.535L838.638 448.307V434.529H840.901V451.889ZM852.121 434.554V451.889H849.858V434.554H852.121ZM860.231 443.209C860.231 441.518 860.613 440.001 861.375 438.658C862.138 437.298 863.174 436.237 864.484 435.474C865.811 434.711 867.278 434.33 868.886 434.33C870.777 434.33 872.426 434.786 873.836 435.698C875.245 436.61 876.273 437.903 876.92 439.578H874.209C873.728 438.533 873.031 437.729 872.12 437.165C871.224 436.602 870.146 436.32 868.886 436.32C867.676 436.32 866.59 436.602 865.628 437.165C864.667 437.729 863.912 438.533 863.365 439.578C862.818 440.606 862.544 441.816 862.544 443.209C862.544 444.585 862.818 445.796 863.365 446.84C863.912 447.868 864.667 448.664 865.628 449.228C866.59 449.791 867.676 450.073 868.886 450.073C870.146 450.073 871.224 449.8 872.12 449.253C873.031 448.689 873.728 447.885 874.209 446.84H876.92C876.273 448.498 875.245 449.783 873.836 450.695C872.426 451.59 870.777 452.038 868.886 452.038C867.278 452.038 865.811 451.665 864.484 450.919C863.174 450.156 862.138 449.103 861.375 447.76C860.613 446.417 860.231 444.9 860.231 443.209ZM887.65 434.554V451.889H885.387V434.554H887.65ZM906.853 448.034H899.292L897.899 451.889H895.512L901.779 434.653H904.391L910.633 451.889H908.246L906.853 448.034ZM906.206 446.193L903.073 437.439L899.939 446.193H906.206ZM927.591 451.889L923.462 444.801H920.726V451.889H918.463V434.554H924.059C925.369 434.554 926.472 434.778 927.367 435.225C928.279 435.673 928.959 436.278 929.406 437.041C929.854 437.804 930.078 438.674 930.078 439.652C930.078 440.846 929.73 441.899 929.033 442.811C928.353 443.723 927.325 444.328 925.949 444.627L930.302 451.889H927.591ZM920.726 442.985H924.059C925.286 442.985 926.206 442.687 926.82 442.09C927.433 441.476 927.74 440.664 927.74 439.652C927.74 438.624 927.433 437.829 926.82 437.265C926.223 436.701 925.303 436.419 924.059 436.419H920.726V442.985ZM960.669 448.034H953.108L951.715 451.889H949.328L955.595 434.653H958.207L964.449 451.889H962.062L960.669 448.034ZM960.022 446.193L956.889 437.439L953.755 446.193H960.022ZM985.908 451.889H983.645L974.542 438.086V451.889H972.279V434.529H974.542L983.645 448.307V434.529H985.908V451.889ZM1005.11 448.034H997.551L996.158 451.889H993.771L1000.04 434.653H1002.65L1008.89 451.889H1006.5L1005.11 448.034ZM1004.47 446.193L1001.33 437.439L998.198 446.193H1004.47ZM1003.77 430.799L998.471 433.634V431.943L1003.77 428.834V430.799ZM1018.99 450.048H1025.05V451.889H1016.72V434.554H1018.99V450.048ZM1034.82 434.554V451.889H1032.56V434.554H1034.82ZM1049.27 452.063C1048.13 452.063 1047.1 451.864 1046.19 451.466C1045.29 451.052 1044.59 450.488 1044.07 449.775C1043.56 449.045 1043.29 448.208 1043.28 447.263H1045.69C1045.77 448.075 1046.1 448.763 1046.68 449.327C1047.28 449.874 1048.14 450.148 1049.27 450.148C1050.35 450.148 1051.19 449.883 1051.81 449.352C1052.44 448.805 1052.75 448.109 1052.75 447.263C1052.75 446.6 1052.57 446.061 1052.21 445.646C1051.84 445.232 1051.39 444.917 1050.84 444.701C1050.29 444.486 1049.55 444.254 1048.62 444.005C1047.48 443.706 1046.56 443.408 1045.86 443.11C1045.18 442.811 1044.6 442.347 1044.1 441.717C1043.62 441.07 1043.38 440.208 1043.38 439.13C1043.38 438.185 1043.62 437.348 1044.1 436.618C1044.58 435.889 1045.25 435.325 1046.11 434.927C1046.99 434.529 1047.99 434.33 1049.12 434.33C1050.75 434.33 1052.07 434.736 1053.1 435.549C1054.15 436.361 1054.73 437.439 1054.87 438.782H1052.38C1052.3 438.119 1051.95 437.538 1051.34 437.041C1050.72 436.527 1049.91 436.27 1048.9 436.27C1047.95 436.27 1047.18 436.519 1046.59 437.016C1045.99 437.497 1045.69 438.177 1045.69 439.056C1045.69 439.686 1045.86 440.2 1046.21 440.598C1046.58 440.996 1047.02 441.302 1047.53 441.518C1048.06 441.717 1048.8 441.949 1049.74 442.214C1050.89 442.529 1051.81 442.844 1052.5 443.159C1053.2 443.458 1053.8 443.93 1054.3 444.577C1054.79 445.207 1055.04 446.069 1055.04 447.163C1055.04 448.009 1054.82 448.805 1054.37 449.551C1053.92 450.297 1053.26 450.902 1052.38 451.367C1051.5 451.831 1050.47 452.063 1049.27 452.063ZM1065.73 436.394V442.189H1072.05V444.055H1065.73V450.024H1072.8V451.889H1063.47V434.529H1072.8V436.394H1065.73Z" fill="white"/>
</g>
</g>
<g filter="url(#filter7_d_1_5)">
<path d="M845.712 150.075C851.924 150.075 857.352 151.306 861.996 153.768C866.641 156.231 870.222 159.7 872.74 164.177C875.314 168.597 876.602 173.718 876.602 179.538C876.602 185.301 875.314 190.422 872.74 194.898C870.222 199.375 866.613 202.844 861.912 205.307C857.268 207.769 851.868 209 845.712 209H823.636V150.075H845.712ZM844.789 196.577C850.217 196.577 854.442 195.094 857.463 192.128C860.485 189.162 861.996 184.966 861.996 179.538C861.996 174.109 860.485 169.885 857.463 166.863C854.442 163.841 850.217 162.33 844.789 162.33H837.99V196.577H844.789ZM886.805 185.497C886.805 180.685 887.701 176.46 889.491 172.822C891.338 169.185 893.828 166.387 896.962 164.429C900.096 162.47 903.593 161.491 907.454 161.491C910.756 161.491 913.638 162.162 916.1 163.505C918.618 164.848 920.549 166.611 921.892 168.793V162.162H936.245V209H921.892V202.369C920.493 204.551 918.534 206.314 916.016 207.657C913.554 209 910.672 209.672 907.37 209.672C903.565 209.672 900.096 208.692 896.962 206.734C893.828 204.719 891.338 201.893 889.491 198.256C887.701 194.563 886.805 190.31 886.805 185.497ZM921.892 185.581C921.892 182 920.884 179.174 918.87 177.103C916.911 175.033 914.505 173.998 911.651 173.998C908.797 173.998 906.363 175.033 904.348 177.103C902.39 179.118 901.411 181.916 901.411 185.497C901.411 189.079 902.39 191.932 904.348 194.059C906.363 196.129 908.797 197.165 911.651 197.165C914.505 197.165 916.911 196.129 918.87 194.059C920.884 191.988 921.892 189.162 921.892 185.581ZM977.771 196.829V209H970.468C965.264 209 961.207 207.741 958.297 205.223C955.387 202.649 953.932 198.48 953.932 192.716V174.081H948.224V162.162H953.932V150.747H968.286V162.162H977.687V174.081H968.286V192.884C968.286 194.283 968.621 195.29 969.293 195.906C969.964 196.521 971.084 196.829 972.65 196.829H977.771ZM987.948 185.497C987.948 180.685 988.844 176.46 990.634 172.822C992.481 169.185 994.971 166.387 998.105 164.429C1001.24 162.47 1004.74 161.491 1008.6 161.491C1011.9 161.491 1014.78 162.162 1017.24 163.505C1019.76 164.848 1021.69 166.611 1023.03 168.793V162.162H1037.39V209H1023.03V202.369C1021.64 204.551 1019.68 206.314 1017.16 207.657C1014.7 209 1011.81 209.672 1008.51 209.672C1004.71 209.672 1001.24 208.692 998.105 206.734C994.971 204.719 992.481 201.893 990.634 198.256C988.844 194.563 987.948 190.31 987.948 185.497ZM1023.03 185.581C1023.03 182 1022.03 179.174 1020.01 177.103C1018.05 175.033 1015.65 173.998 1012.79 173.998C1009.94 173.998 1007.51 175.033 1005.49 177.103C1003.53 179.118 1002.55 181.916 1002.55 185.497C1002.55 189.079 1003.53 191.932 1005.49 194.059C1007.51 196.129 1009.94 197.165 1012.79 197.165C1015.65 197.165 1018.05 196.129 1020.01 194.059C1022.03 191.988 1023.03 189.162 1023.03 185.581ZM788.314 297.989H762.796L758.096 311H750.038L771.19 252.83H780.004L801.072 311H793.014L788.314 297.989ZM786.131 291.778L775.555 262.232L764.979 291.778H786.131ZM837.739 264.162C843.335 264.162 847.868 265.869 851.337 269.282C854.807 272.64 856.541 277.508 856.541 283.888V311H848.987V284.979C848.987 280.39 847.84 276.893 845.545 274.487C843.251 272.024 840.117 270.793 836.144 270.793C832.115 270.793 828.898 272.052 826.491 274.571C824.141 277.089 822.966 280.754 822.966 285.567V311H815.328V265.002H822.966V271.549C824.477 269.199 826.519 267.38 829.093 266.093C831.724 264.806 834.605 264.162 837.739 264.162ZM871.201 287.833C871.201 283.132 872.153 279.019 874.055 275.494C875.958 271.913 878.56 269.143 881.861 267.184C885.219 265.225 888.94 264.246 893.025 264.246C897.054 264.246 900.552 265.113 903.518 266.848C906.483 268.583 908.694 270.765 910.149 273.395V265.002H917.871V311H910.149V302.438C908.638 305.124 906.372 307.363 903.35 309.153C900.384 310.888 896.914 311.755 892.941 311.755C888.856 311.755 885.163 310.748 881.861 308.734C878.56 306.719 875.958 303.893 874.055 300.256C872.153 296.618 871.201 292.478 871.201 287.833ZM910.149 287.917C910.149 284.447 909.449 281.426 908.05 278.851C906.651 276.277 904.749 274.319 902.342 272.976C899.992 271.577 897.39 270.877 894.536 270.877C891.682 270.877 889.08 271.549 886.73 272.892C884.38 274.235 882.505 276.193 881.106 278.768C879.707 281.342 879.008 284.363 879.008 287.833C879.008 291.358 879.707 294.436 881.106 297.066C882.505 299.64 884.38 301.627 886.73 303.026C889.08 304.369 891.682 305.04 894.536 305.04C897.39 305.04 899.992 304.369 902.342 303.026C904.749 301.627 906.651 299.64 908.05 297.066C909.449 294.436 910.149 291.386 910.149 287.917ZM943.454 248.885V311H935.816V248.885H943.454ZM1001.13 265.002L973.428 332.656H965.538L974.603 310.496L956.053 265.002H964.531L978.968 302.27L993.238 265.002H1001.13ZM1023.16 271.297V298.409C1023.16 300.648 1023.64 302.242 1024.59 303.194C1025.54 304.089 1027.19 304.537 1029.54 304.537H1035.16V311H1028.28C1024.03 311 1020.84 310.021 1018.71 308.062C1016.58 306.104 1015.52 302.886 1015.52 298.409V271.297H1009.56V265.002H1015.52V253.418H1023.16V265.002H1035.16V271.297H1023.16ZM1053.4 257.531C1051.94 257.531 1050.71 257.027 1049.71 256.02C1048.7 255.013 1048.2 253.782 1048.2 252.327C1048.2 250.872 1048.7 249.641 1049.71 248.634C1050.71 247.626 1051.94 247.123 1053.4 247.123C1054.8 247.123 1055.97 247.626 1056.92 248.634C1057.93 249.641 1058.44 250.872 1058.44 252.327C1058.44 253.782 1057.93 255.013 1056.92 256.02C1055.97 257.027 1054.8 257.531 1053.4 257.531ZM1057.09 265.002V311H1049.45V265.002H1057.09ZM1072.29 287.917C1072.29 283.16 1073.24 279.019 1075.15 275.494C1077.05 271.913 1079.68 269.143 1083.04 267.184C1086.45 265.225 1090.34 264.246 1094.71 264.246C1100.36 264.246 1105 265.617 1108.64 268.359C1112.33 271.101 1114.77 274.906 1115.94 279.775H1107.72C1106.93 276.977 1105.39 274.766 1103.1 273.144C1100.86 271.521 1098.06 270.709 1094.71 270.709C1090.34 270.709 1086.81 272.22 1084.13 275.242C1081.44 278.208 1080.1 282.433 1080.1 287.917C1080.1 293.457 1081.44 297.738 1084.13 300.759C1086.81 303.781 1090.34 305.292 1094.71 305.292C1098.06 305.292 1100.86 304.509 1103.1 302.942C1105.34 301.375 1106.88 299.137 1107.72 296.227H1115.94C1114.71 300.927 1112.25 304.705 1108.56 307.559C1104.86 310.356 1100.25 311.755 1094.71 311.755C1090.34 311.755 1086.45 310.776 1083.04 308.818C1079.68 306.859 1077.05 304.089 1075.15 300.508C1073.24 296.926 1072.29 292.729 1072.29 287.917ZM1147.45 311.755C1143.93 311.755 1140.77 311.168 1137.97 309.993C1135.17 308.762 1132.96 307.083 1131.34 304.956C1129.72 302.774 1128.82 300.284 1128.65 297.486H1136.54C1136.77 299.78 1137.83 301.655 1139.73 303.11C1141.69 304.565 1144.24 305.292 1147.37 305.292C1150.28 305.292 1152.57 304.649 1154.25 303.362C1155.93 302.075 1156.77 300.452 1156.77 298.493C1156.77 296.479 1155.88 294.996 1154.09 294.044C1152.29 293.037 1149.52 292.058 1145.78 291.107C1142.36 290.211 1139.56 289.316 1137.38 288.42C1135.25 287.469 1133.41 286.098 1131.84 284.307C1130.33 282.461 1129.58 280.055 1129.58 277.089C1129.58 274.738 1130.27 272.584 1131.67 270.625C1133.07 268.667 1135.06 267.128 1137.63 266.009C1140.21 264.834 1143.15 264.246 1146.45 264.246C1151.54 264.246 1155.65 265.533 1158.79 268.107C1161.92 270.681 1163.6 274.207 1163.82 278.684H1156.18C1156.02 276.277 1155.04 274.347 1153.25 272.892C1151.51 271.437 1149.16 270.709 1146.19 270.709C1143.45 270.709 1141.27 271.297 1139.65 272.472C1138.02 273.647 1137.21 275.186 1137.21 277.089C1137.21 278.6 1137.69 279.859 1138.64 280.866C1139.65 281.817 1140.88 282.601 1142.33 283.216C1143.84 283.776 1145.92 284.419 1148.55 285.147C1151.85 286.042 1154.53 286.938 1156.6 287.833C1158.67 288.672 1160.44 289.959 1161.89 291.694C1163.4 293.429 1164.19 295.695 1164.24 298.493C1164.24 301.011 1163.54 303.278 1162.14 305.292C1160.74 307.307 1158.76 308.902 1156.18 310.077C1153.67 311.196 1150.76 311.755 1147.45 311.755Z" fill="white"/>
</g>
<path d="M27.2713 226.655C31.2212 226.506 39.1075 222.476 39.1209 222.462C39.1344 222.449 34.888 218.067 34.5779 217.825C31.0594 215.007 22.607 211.637 18.401 214.414C17.7145 214.896 17.1374 215.518 16.7072 216.238C16.277 216.958 16.0034 217.761 15.9042 218.594C15.805 219.427 15.8824 220.272 16.1315 221.073C16.3805 221.874 16.7955 222.614 17.3495 223.244C19.5873 226.008 23.9011 226.776 27.2713 226.655Z" fill="#7E57C2"/>
<path d="M108.83 189.461C108.924 189.461 107.725 183.462 107.603 183.085C106.255 178.798 101.025 171.316 95.9829 171.316C95.1478 171.339 94.3269 171.537 93.5732 171.898C92.8195 172.258 92.1498 172.772 91.6073 173.408C91.0648 174.043 90.6616 174.785 90.4238 175.586C90.1859 176.386 90.1188 177.228 90.2266 178.056C90.5906 181.602 93.7585 184.635 96.6434 186.388C100.014 188.464 108.817 189.461 108.83 189.461Z" fill="#7E57C2"/>
<path d="M118.698 149.046C113.939 150.744 111.553 159.534 111.688 164.036C111.688 164.427 112.591 170.494 112.672 170.453L112.753 170.467C112.375 171.815 111.971 173.352 111.567 174.983C110.852 178.003 110.057 181.427 109.464 185.215C108.773 189.287 108.323 193.397 108.115 197.523C107.854 202.141 107.998 206.774 108.547 211.367C108.553 211.421 108.553 211.476 108.547 211.529C107.927 210.181 106.08 206.487 105.851 206.218C103.384 202.443 96.4142 196.606 91.5341 197.927C90.7286 198.172 89.9838 198.583 89.3482 199.135C88.7126 199.687 88.2006 200.367 87.8457 201.131C87.4907 201.894 87.3008 202.724 87.2883 203.565C87.2757 204.407 87.4409 205.242 87.773 206.016C89.1211 209.332 92.9092 211.408 96.1581 212.352C99.7979 213.39 107.94 212.19 108.587 212.082C109.299 216.696 110.317 221.258 111.634 225.738C112.362 228.434 113.198 231.009 114.061 233.651C113.481 232.505 112.969 231.481 112.874 231.346C110.407 227.571 103.438 221.734 98.5576 223.055C97.7521 223.3 97.0072 223.712 96.3717 224.264C95.7361 224.816 95.2241 225.496 94.8692 226.259C94.5142 227.022 94.3243 227.852 94.3117 228.694C94.2992 229.535 94.4644 230.37 94.7965 231.144C96.0772 234.46 99.9461 236.536 103.182 237.48C106.417 238.423 113.427 237.48 115.314 237.264C115.665 238.275 115.988 239.286 116.339 240.284C117.997 245.11 119.669 249.922 121.165 254.695C121.691 256.366 122.149 258.038 122.621 259.71C122.109 258.698 121.664 257.849 121.583 257.728C119.129 253.953 112.146 248.103 107.28 249.437C106.472 249.678 105.724 250.088 105.086 250.639C104.448 251.19 103.933 251.87 103.577 252.634C103.22 253.398 103.029 254.229 103.017 255.072C103.005 255.915 103.171 256.751 103.505 257.526C104.853 260.842 108.655 262.918 111.89 263.848C115.125 264.778 121.461 263.983 123.645 263.686C124.077 265.412 124.508 267.151 124.832 268.836C125.034 269.995 125.317 271.101 125.452 272.287C125.587 273.473 125.775 274.592 125.924 275.738C126.153 277.936 126.395 280.214 126.557 282.371C126.679 283.881 126.773 285.31 126.867 286.752C126.368 285.067 125.303 281.805 125.182 281.548C123.409 277.998 120.754 274.962 117.471 272.732C117.288 272.323 117.062 271.934 116.797 271.573C116.338 270.872 115.737 270.277 115.033 269.824C114.328 269.371 113.537 269.071 112.709 268.944C111.882 268.817 111.037 268.865 110.229 269.086C109.421 269.306 108.669 269.694 108.021 270.225C104.193 273.514 105.123 282.573 106.875 286.725C106.983 286.981 108.399 289.516 109.315 291.093C108.628 290.243 107.967 289.408 107.266 288.545C105.918 286.833 104.422 285.148 102.871 283.341L100.512 280.78C99.7439 279.904 98.8138 279.081 97.9645 278.219C95.9558 276.264 93.8124 274.377 91.615 272.516C93.1249 271.29 98.3554 266.854 99.9192 263.835C101.483 260.815 102.534 256.582 100.957 253.387C100.614 252.622 100.114 251.937 99.4884 251.379C98.8629 250.82 98.1265 250.4 97.3274 250.145C96.5283 249.891 95.6844 249.808 94.8511 249.902C94.0177 249.996 93.2136 250.265 92.4913 250.691C88.2044 253.387 87.7595 262.46 88.8649 266.868C88.8649 267.137 90.0647 270.184 90.7253 271.856C89.3772 270.75 88.0291 269.645 86.6811 268.566C82.6368 265.479 78.5926 262.473 74.4675 259.453L70.7198 256.663C71.2591 256.231 77.649 251.082 79.361 247.712C80.8709 244.705 81.9628 240.445 80.399 237.251C80.0515 236.488 79.5478 235.806 78.9206 235.25C78.2935 234.693 77.5566 234.275 76.7577 234.021C75.9587 233.767 75.1154 233.683 74.2821 233.775C73.4488 233.867 72.644 234.132 71.9196 234.554C67.6462 237.251 67.1879 246.323 68.2933 250.731C68.3742 251.068 70.0188 255.45 70.4907 256.542C67.7945 254.492 65.0984 252.416 62.4022 250.26C58.8778 247.375 55.5454 244.263 52.4264 240.944C52.6826 240.742 59.369 235.417 61.1215 231.953C62.6314 228.946 63.7233 224.686 62.1595 221.492C61.8151 220.728 61.3137 220.045 60.6879 219.487C60.0622 218.93 59.3262 218.51 58.5277 218.256C57.7292 218.002 56.8861 217.918 56.0532 218.011C55.2204 218.104 54.4164 218.371 53.6936 218.795C49.4067 221.492 48.9619 230.551 50.0538 234.972C50.1212 235.269 51.4019 238.612 52.0085 240.189L51.7659 240.338C48.7231 236.91 45.9894 233.22 43.5965 229.31C42.2484 227.18 41.0891 225.064 39.9972 222.974C41.3452 222.112 47.4655 218.081 49.4337 215.142C51.4019 212.203 52.8308 208.213 51.6176 204.856C51.3589 204.063 50.9366 203.332 50.3782 202.712C49.8197 202.091 49.1374 201.595 48.3753 201.255C47.6131 200.914 46.7881 200.737 45.9534 200.735C45.1186 200.733 44.2928 200.906 43.5291 201.243C38.9726 203.427 37.5302 212.419 38.1368 216.881C38.1368 217.124 38.7839 219.577 39.2557 221.316C38.7839 220.373 38.2716 219.402 37.9076 218.485C36.2495 215.048 34.9419 211.745 33.8634 208.901C33.2298 207.256 32.6906 205.746 32.2053 204.344C33.0815 202.807 36.5596 196.552 36.8966 193.115C37.2336 189.677 36.7078 185.404 34.0926 182.99C33.4945 182.402 32.7793 181.945 31.9933 181.651C31.2074 181.356 30.3683 181.23 29.5305 181.281C28.6928 181.332 27.8751 181.558 27.1305 181.946C26.386 182.333 25.7312 182.873 25.2087 183.53C22.1891 187.574 25.047 196.202 27.6488 199.882C27.8645 200.205 31.9491 204.775 32.0031 204.694V204.6C32.4479 205.948 32.9332 207.431 33.4994 209.022C34.5644 211.934 35.8046 215.223 37.3819 218.714C39.0507 222.496 40.9367 226.178 43.0303 229.742C45.3537 233.738 48.029 237.518 51.0244 241.039L51.1457 241.16C49.892 240.378 46.2927 238.329 46.0096 238.194C41.871 236.415 32.8254 235.39 29.4956 239.178C28.9629 239.828 28.5728 240.582 28.3508 241.392C28.1288 242.202 28.0797 243.05 28.2069 243.88C28.3341 244.711 28.6345 245.505 29.0888 246.211C29.5431 246.918 30.141 247.521 30.8437 247.981C33.7421 250.044 38.1098 249.639 41.3183 248.642C44.9446 247.496 51.0649 241.996 51.5502 241.551C54.6574 244.991 57.99 248.22 61.5259 251.217C63.5885 253.01 65.7454 254.762 67.9158 256.474C66.7969 255.841 65.8128 255.274 65.6645 255.22C61.5259 253.427 52.4803 252.403 49.1506 256.205C48.6181 256.853 48.2283 257.606 48.0063 258.415C47.7844 259.224 47.7355 260.071 47.8626 260.9C47.9898 261.729 48.2903 262.523 48.7445 263.228C49.1987 263.933 49.7964 264.535 50.4987 264.994C53.397 267.057 57.7648 266.666 60.9732 265.655C64.1817 264.643 69.5605 260.047 70.949 258.806L73.389 260.788C77.4333 263.902 81.4775 266.989 85.3599 270.13C86.708 271.236 88.0561 272.381 89.4042 273.527C88.4201 272.961 87.5843 272.489 87.4495 272.435C83.3109 270.642 74.2653 269.618 70.9355 273.419C70.4031 274.068 70.0132 274.821 69.7913 275.63C69.5693 276.439 69.5204 277.286 69.6476 278.115C69.7748 278.944 70.0752 279.738 70.5294 280.443C70.9836 281.148 71.5813 281.75 72.2836 282.209C75.182 284.271 79.5497 283.881 82.7716 282.869C85.9935 281.858 90.8601 277.706 92.4778 276.25C93.8259 277.45 95.0931 278.663 96.3063 279.89C97.1152 280.74 97.951 281.508 98.7194 282.425L100.93 285.053C102.278 286.765 103.788 288.531 105.123 290.243C106.053 291.416 106.916 292.562 107.819 293.722C106.471 292.603 103.775 290.459 103.546 290.311C99.717 287.911 90.941 285.525 87.072 288.774C86.4485 289.335 85.9499 290.021 85.6086 290.788C85.2673 291.554 85.0909 292.384 85.0909 293.223C85.0909 294.062 85.2673 294.891 85.6086 295.658C85.9499 296.424 86.4485 297.11 87.072 297.671C89.6199 300.152 94.0011 300.368 97.3309 299.909C100.998 299.343 107.63 295.043 108.466 294.517C109.908 296.418 111.283 298.291 112.51 300.071C114.694 303.104 116.635 305.922 118.334 308.456L121.273 307.041C119.426 304.412 117.309 301.473 114.923 298.305C113.467 296.364 111.863 294.261 110.205 292.225C111.922 290.347 113.529 288.371 115.018 286.307C118.563 287.655 125.951 287.776 126.894 287.776C127.042 290.163 127.177 292.481 127.258 294.679C127.393 298.076 127.465 301.199 127.474 304.048L130.628 302.524C130.547 300.057 130.413 297.375 130.237 294.53C130.103 292.104 129.9 289.516 129.658 286.86C130.601 286.631 138.285 284.676 141.197 282.357C143.893 280.268 146.59 276.871 146.59 273.298C146.595 272.46 146.425 271.629 146.09 270.861C145.754 270.093 145.261 269.403 144.642 268.838C144.023 268.272 143.292 267.843 142.497 267.578C141.701 267.313 140.859 267.218 140.024 267.299C135.023 267.933 130.804 276.008 129.968 280.429C129.968 280.686 129.698 283.584 129.59 285.417C129.496 284.325 129.415 283.274 129.294 282.168C129.078 279.958 128.795 277.76 128.498 275.428C128.323 274.282 128.134 273.136 127.946 271.977C127.757 270.818 127.474 269.631 127.245 268.445C126.638 265.749 125.897 262.945 125.088 260.195C127.016 259.993 133.864 259.211 136.803 257.499C139.741 255.787 142.977 252.888 143.435 249.41C143.571 248.583 143.531 247.736 143.317 246.925C143.104 246.114 142.722 245.357 142.197 244.704C141.672 244.05 141.015 243.514 140.269 243.131C139.523 242.748 138.705 242.527 137.868 242.481C132.812 242.346 127.433 249.68 125.937 253.94C125.843 254.196 125.115 257.364 124.737 259.116C124.238 257.472 123.753 255.814 123.187 254.155C121.583 249.383 119.79 244.598 118.037 239.812C117.498 238.356 116.972 236.887 116.447 235.417C117.134 235.417 125.303 234.595 128.579 232.721C131.491 231.049 134.754 228.097 135.212 224.565C135.345 223.737 135.303 222.89 135.088 222.079C134.873 221.268 134.49 220.511 133.964 219.858C133.438 219.205 132.78 218.669 132.034 218.286C131.287 217.904 130.468 217.682 129.631 217.636C124.589 217.501 119.197 224.848 117.7 229.095C117.592 229.418 116.541 233.975 116.352 235.148C115.193 231.926 114.074 228.704 113.09 225.468C111.749 221.12 110.691 216.689 109.922 212.203C110.245 212.203 118.765 211.421 122.135 209.507C125.047 207.836 128.31 204.897 128.768 201.419C128.902 200.591 128.86 199.745 128.645 198.935C128.429 198.124 128.046 197.369 127.52 196.716C126.993 196.064 126.335 195.53 125.589 195.148C124.842 194.767 124.024 194.547 123.187 194.503C118.145 194.368 112.753 201.702 111.257 205.948C111.162 206.231 110.367 209.709 110.03 211.341H109.652C108.99 206.735 108.747 202.078 108.924 197.428C108.924 194.907 109.18 192.508 109.423 190.162C111.027 190.162 118.347 190.162 121.556 188.814C124.764 187.466 128.202 184.905 129.038 181.454C129.263 180.646 129.316 179.799 129.192 178.969C129.069 178.139 128.773 177.345 128.323 176.637C127.873 175.929 127.28 175.323 126.581 174.859C125.881 174.396 125.093 174.084 124.265 173.945C119.264 173.257 113.103 179.957 111.149 184.028C111.041 184.244 110.205 186.617 109.625 188.342C109.76 187.291 109.868 186.199 110.003 185.188C110.529 181.413 111.23 177.976 111.89 174.942C112.268 173.23 112.659 171.68 113.022 170.224C114.613 169.429 120.949 166.18 123.12 163.484C125.29 160.788 127.164 156.946 126.368 153.495C126.195 152.677 125.853 151.905 125.362 151.228C124.872 150.551 124.245 149.984 123.522 149.565C122.799 149.146 121.996 148.883 121.165 148.794C120.334 148.704 119.494 148.79 118.698 149.046Z" fill="#7E57C2"/>
<path d="M638.732 423.353C634.796 423.636 626.505 420.495 626.492 420.495C626.478 420.495 630.226 415.655 630.536 415.385C633.717 412.204 641.752 407.917 646.241 410.222C646.976 410.626 647.618 411.179 648.124 411.847C648.631 412.515 648.992 413.282 649.182 414.099C649.373 414.915 649.39 415.762 649.231 416.586C649.073 417.409 648.743 418.19 648.263 418.877C646.295 421.87 642.089 423.11 638.732 423.353Z" fill="#7E57C2"/>
<path d="M553.574 395.299C553.48 395.299 554.019 389.219 554.1 388.828C555.003 384.42 559.344 376.413 564.359 375.86C565.194 375.791 566.035 375.9 566.826 376.178C567.617 376.456 568.34 376.897 568.95 377.473C569.559 378.049 570.04 378.747 570.361 379.521C570.683 380.295 570.838 381.129 570.816 381.967C570.816 385.526 568.026 388.882 565.356 390.945C562.256 393.358 553.574 395.299 553.574 395.299Z" fill="#7E57C2"/>
<path d="M539.379 356.218C544.286 357.378 547.616 365.857 547.966 370.346C547.966 370.737 547.791 376.857 547.697 376.831H547.602C548.128 378.179 548.694 379.608 549.274 381.185C550.312 384.11 551.471 387.426 552.482 391.134C553.621 395.121 554.522 399.172 555.178 403.266C555.951 407.826 556.312 412.446 556.257 417.071C556.263 417.124 556.263 417.179 556.257 417.232C556.729 415.884 558.171 411.961 558.319 411.665C560.355 407.621 566.65 401.082 571.638 401.864C572.463 402.02 573.246 402.347 573.936 402.824C574.626 403.302 575.208 403.919 575.644 404.636C576.08 405.353 576.36 406.154 576.467 406.986C576.573 407.818 576.504 408.664 576.262 409.467C575.346 412.905 571.733 415.399 568.619 416.68C565.114 418.122 556.877 417.799 556.23 417.772C556.056 422.48 555.574 427.173 554.787 431.819C554.343 434.515 553.803 437.211 553.237 439.907C553.682 438.707 554.086 437.629 554.154 437.494C556.189 433.45 562.498 426.898 567.486 427.693C568.309 427.849 569.09 428.176 569.779 428.652C570.467 429.129 571.048 429.746 571.482 430.461C571.917 431.177 572.196 431.976 572.302 432.807C572.408 433.638 572.338 434.481 572.097 435.283C571.194 438.734 567.581 441.215 564.467 442.495C561.353 443.776 554.289 443.668 552.428 443.614C552.199 444.652 551.983 445.69 551.741 446.728C550.622 451.703 549.489 456.664 548.519 461.557C548.182 463.283 547.912 464.995 547.629 466.707C548.02 465.642 548.371 464.752 548.424 464.617C550.474 460.573 556.769 454.021 561.757 454.817C562.581 454.971 563.364 455.296 564.054 455.772C564.744 456.248 565.326 456.864 565.762 457.58C566.198 458.296 566.478 459.096 566.585 459.927C566.692 460.759 566.622 461.604 566.381 462.406C565.464 465.858 561.851 468.351 558.737 469.619C555.623 470.886 549.233 470.805 547.036 470.738C546.793 472.504 546.564 474.27 546.416 475.995C546.348 477.168 546.187 478.3 546.187 479.487C546.187 480.673 546.187 481.819 546.079 482.965C546.079 485.189 546.079 487.467 546.187 489.705C546.187 491.201 546.295 492.644 546.348 494.086C546.672 492.361 547.373 489.004 547.454 488.694C548.844 484.971 551.165 481.667 554.194 479.096C554.33 478.675 554.506 478.269 554.72 477.882C555.096 477.133 555.625 476.47 556.273 475.939C556.922 475.407 557.675 475.018 558.484 474.797C559.292 474.576 560.139 474.527 560.967 474.655C561.796 474.782 562.589 475.083 563.294 475.537C567.459 478.395 567.513 487.494 566.233 491.821C566.152 492.078 565.033 494.747 564.291 496.418C564.871 495.502 565.424 494.599 566.044 493.722C567.244 491.862 568.497 490.029 569.845 488.06L571.908 485.256C572.582 484.299 573.404 483.383 574.159 482.425C575.939 480.268 577.866 478.165 579.848 476.076C578.217 475.024 572.488 471.196 570.641 468.351C568.794 465.507 567.257 461.422 568.47 458.079C568.727 457.284 569.149 456.552 569.707 455.931C570.265 455.309 570.947 454.812 571.71 454.471C572.473 454.131 573.299 453.954 574.134 453.953C574.969 453.952 575.795 454.127 576.559 454.466C581.115 456.65 582.544 465.642 581.951 470.104C581.951 470.387 581.115 473.542 580.603 475.254C581.803 474.013 582.989 472.773 584.243 471.56C587.869 468.041 591.644 464.604 595.391 461.153C596.537 460.101 597.67 459.036 598.802 457.971C598.222 457.607 591.307 453.199 589.244 450.018C587.411 447.2 585.861 443.089 587.074 439.745C587.333 438.952 587.755 438.221 588.313 437.601C588.872 436.98 589.554 436.484 590.316 436.144C591.078 435.803 591.903 435.626 592.738 435.624C593.573 435.622 594.399 435.796 595.162 436.132C599.705 438.316 601.148 447.308 600.555 451.77C600.555 452.107 599.355 456.637 599.004 457.783C601.512 455.437 603.979 453.078 606.324 450.665C609.511 447.413 612.478 443.954 615.208 440.311C614.939 440.136 607.713 435.566 605.596 432.317C603.763 429.486 602.213 425.388 603.426 422.032C603.685 421.238 604.107 420.507 604.665 419.887C605.224 419.267 605.906 418.77 606.668 418.43C607.43 418.089 608.256 417.912 609.09 417.911C609.925 417.909 610.751 418.082 611.515 418.419C616.071 420.603 617.5 429.594 616.907 434.07C616.907 434.353 615.99 437.818 615.559 439.462L615.815 439.584C618.47 435.849 620.785 431.883 622.73 427.734C623.836 425.469 624.753 423.231 625.615 420.994C624.173 420.279 617.662 416.949 615.424 414.253C613.186 411.557 611.299 407.742 612.135 404.277C612.305 403.456 612.645 402.679 613.135 401.997C613.625 401.316 614.252 400.745 614.977 400.321C615.701 399.898 616.507 399.632 617.341 399.54C618.175 399.448 619.019 399.533 619.819 399.788C624.577 401.473 626.99 410.249 626.883 414.752C626.883 414.995 626.532 417.448 626.249 419.281C626.626 418.297 627.017 417.273 627.354 416.316C628.622 412.716 629.565 409.333 630.374 406.34C630.819 404.628 631.183 403.078 631.506 401.622C630.468 400.193 626.343 394.355 625.629 390.985C624.914 387.615 624.968 383.301 627.3 380.605C627.83 379.954 628.49 379.421 629.239 379.042C629.988 378.663 630.808 378.446 631.646 378.406C632.484 378.365 633.322 378.501 634.104 378.806C634.886 379.111 635.595 379.577 636.184 380.174C639.635 383.854 637.735 392.751 635.564 396.701C635.375 397.038 631.803 402.026 631.749 401.959V401.864C631.453 403.28 631.129 404.776 630.738 406.421C629.997 409.44 629.134 412.838 627.934 416.491C626.688 420.428 625.216 424.29 623.526 428.057C621.648 432.296 619.392 436.356 616.786 440.19C616.757 440.237 616.726 440.282 616.691 440.325C617.85 439.422 621.194 436.982 621.477 436.82C625.386 434.582 634.27 432.587 637.991 435.998C638.593 436.581 639.066 437.285 639.379 438.063C639.691 438.841 639.836 439.677 639.805 440.515C639.773 441.353 639.565 442.175 639.194 442.927C638.824 443.68 638.299 444.345 637.654 444.881C634.958 447.241 630.603 447.335 627.3 446.674C623.58 445.946 616.893 441.147 616.354 440.756C613.627 444.591 610.64 448.235 607.416 451.662C605.543 453.684 603.601 455.706 601.633 457.594C602.671 456.839 603.601 456.178 603.736 456.097C607.659 453.86 616.529 451.851 620.25 455.262C620.855 455.844 621.329 456.547 621.643 457.326C621.957 458.104 622.102 458.94 622.071 459.779C622.039 460.618 621.83 461.44 621.458 462.193C621.087 462.945 620.56 463.611 619.913 464.145C617.217 466.518 612.876 466.612 609.573 465.952C606.271 465.291 600.433 461.315 598.91 460.236C598.155 460.977 597.4 461.732 596.632 462.46C592.951 465.992 589.258 469.511 585.753 473.07C584.513 474.31 583.34 475.591 582.167 476.871C583.084 476.197 583.865 475.645 583.987 475.523C587.91 473.299 596.78 471.29 600.501 474.701C601.105 475.283 601.58 475.987 601.894 476.765C602.207 477.544 602.353 478.38 602.321 479.218C602.29 480.057 602.081 480.88 601.709 481.632C601.337 482.384 600.811 483.05 600.164 483.585C597.468 485.957 593.127 486.038 589.824 485.391C586.521 484.744 581.25 481.131 579.444 479.864C578.271 481.212 577.098 482.56 576.033 483.908C575.319 484.852 574.577 485.701 573.917 486.685L571.908 489.543C570.695 491.404 569.441 493.318 568.309 495.151C567.513 496.499 566.785 497.672 566.03 498.899C567.257 497.645 569.684 495.232 569.913 495.043C573.445 492.253 581.924 488.923 586.09 491.727C586.773 492.213 587.347 492.837 587.773 493.558C588.2 494.28 588.469 495.084 588.565 495.917C588.66 496.749 588.579 497.593 588.327 498.393C588.075 499.192 587.657 499.93 587.101 500.557C584.836 503.253 580.509 504.049 577.152 503.914C573.445 503.752 566.367 500.193 565.491 499.748C564.264 501.797 563.092 503.792 562.027 505.72C560.18 508.969 558.562 511.989 557.147 514.685L554.086 513.606C555.623 510.802 557.403 507.648 559.479 504.17C560.705 502.08 562.067 499.87 563.523 497.618C561.623 495.927 559.822 494.126 558.131 492.226C554.76 494.005 547.427 494.922 546.483 494.922C546.591 497.308 546.726 499.64 546.888 501.824C547.117 505.221 547.4 508.335 547.683 511.153L544.394 509.994C544.205 507.522 544.039 504.857 543.895 501.999C543.774 499.573 543.693 496.985 543.639 494.315C542.668 494.194 534.822 493.089 531.681 491.107C528.837 489.314 525.709 486.24 525.399 482.682C525.291 481.844 525.361 480.994 525.605 480.185C525.849 479.377 526.262 478.63 526.816 477.993C527.37 477.356 528.053 476.844 528.82 476.49C529.586 476.137 530.419 475.949 531.263 475.941C536.305 476.022 541.388 483.585 542.695 487.899C542.776 488.155 543.302 490.999 543.612 492.806C543.612 491.727 543.612 490.662 543.612 489.543C543.612 487.332 543.612 485.108 543.612 482.735C543.612 481.59 543.72 480.417 543.774 479.244C543.828 478.071 543.989 476.858 544.097 475.658C544.394 472.868 544.825 470.05 545.337 467.219C543.396 467.219 536.494 467.219 533.393 465.871C530.293 464.523 526.747 461.948 525.912 458.497C525.687 457.689 525.634 456.842 525.758 456.012C525.882 455.183 526.18 454.388 526.631 453.681C527.083 452.974 527.678 452.37 528.379 451.908C529.079 451.446 529.869 451.138 530.697 451.002C535.699 450.314 541.859 457.014 543.801 461.072C543.922 461.328 545 464.402 545.553 466.1C545.877 464.402 546.187 462.716 546.551 461.004C547.643 456.084 548.896 451.123 550.11 446.176C550.487 444.652 550.851 443.142 551.215 441.633C550.514 441.633 542.318 441.781 538.853 440.284C535.766 438.936 532.207 436.375 531.371 432.911C531.146 432.104 531.093 431.259 531.217 430.431C531.34 429.603 531.636 428.81 532.087 428.104C532.537 427.398 533.131 426.795 533.83 426.334C534.529 425.873 535.317 425.565 536.144 425.429C541.145 424.741 547.306 431.441 549.26 435.499C549.409 435.809 550.945 440.231 551.282 441.376C552.078 438.047 552.833 434.717 553.453 431.401C554.311 426.948 554.883 422.445 555.165 417.92C554.841 417.92 546.281 418.095 542.722 416.572C539.635 415.224 536.076 412.662 535.24 409.198C535.015 408.39 534.963 407.543 535.087 406.713C535.211 405.883 535.508 405.089 535.96 404.382C536.411 403.675 537.007 403.071 537.707 402.609C538.408 402.147 539.198 401.838 540.026 401.703C545.027 401.015 551.188 407.715 553.129 411.773C553.264 412.042 554.477 415.412 554.963 417.03H555.246C555.399 412.451 555.142 407.867 554.477 403.334C554.14 400.826 553.682 398.467 553.129 396.162C551.539 396.364 544.272 397.173 540.916 396.162C537.559 395.151 533.879 393.007 532.665 389.664C532.354 388.886 532.21 388.051 532.242 387.213C532.274 386.375 532.482 385.553 532.851 384.801C533.221 384.049 533.745 383.382 534.389 382.845C535.033 382.308 535.782 381.913 536.588 381.684C541.482 380.457 548.344 386.442 550.73 390.271C550.865 390.473 551.943 392.738 552.711 394.396C552.469 393.358 552.24 392.279 551.997 391.295C551.067 387.602 549.988 384.272 549.004 381.32C548.438 379.648 547.885 378.152 547.36 376.763C545.688 376.143 539.028 373.555 536.575 371.128C534.121 368.702 531.789 365.089 532.261 361.543C532.336 360.708 532.585 359.898 532.994 359.166C533.402 358.433 533.96 357.795 534.632 357.293C535.303 356.79 536.073 356.435 536.891 356.25C537.709 356.065 538.557 356.054 539.379 356.218V356.218Z" fill="#7E57C2"/>
<path d="M605.96 606.462C603.803 607.54 598.398 607.689 598.398 607.689C598.398 607.689 599.368 604.089 599.463 603.874C600.528 601.339 604.073 597.052 607.133 597.309C607.643 597.363 608.135 597.524 608.578 597.782C609.021 598.039 609.405 598.388 609.704 598.804C610.003 599.22 610.21 599.694 610.313 600.196C610.416 600.698 610.412 601.216 610.301 601.717C609.897 603.86 607.807 605.545 605.96 606.462Z" fill="#7E57C2"/>
<path d="M551.363 610.425C551.363 610.425 550.204 606.88 550.15 606.651C549.638 603.955 550.231 598.414 552.927 596.931C553.383 596.697 553.884 596.562 554.396 596.534C554.909 596.507 555.421 596.588 555.899 596.773C556.378 596.957 556.812 597.241 557.173 597.605C557.535 597.969 557.815 598.406 557.996 598.886C558.845 600.881 557.996 603.442 556.998 605.222C555.799 607.311 551.363 610.425 551.363 610.425Z" fill="#7E57C2"/>
<path d="M568.727 668.703C569.387 670.199 570.075 671.641 570.668 672.976C571.261 674.311 571.719 675.187 572.218 676.198H574.362C573.714 674.958 573.013 673.623 572.312 672.154C571.719 670.954 571.099 669.673 570.479 668.352C572.645 667.209 574.641 665.771 576.411 664.079C577.81 664.758 579.251 665.347 580.724 665.845C580.455 667.449 580.199 669.013 579.983 670.482C579.686 672.545 579.444 674.445 579.242 676.171H581.196C581.358 674.513 581.547 672.693 581.789 670.779C581.951 669.431 582.153 668.083 582.369 666.6C582.962 666.6 587.761 667.018 589.918 666.236C592.075 665.454 594.111 664.106 594.758 662.03C594.926 661.546 594.991 661.033 594.947 660.523C594.903 660.012 594.752 659.517 594.504 659.069C594.256 658.622 593.916 658.231 593.507 657.924C593.098 657.616 592.628 657.398 592.129 657.284C589.109 656.678 585.092 660.52 583.758 662.919C583.663 663.081 582.854 665.009 582.41 666.007C582.531 665.13 582.666 664.267 582.814 663.31C583.03 661.962 583.299 660.614 583.542 659.266C583.69 658.579 583.852 657.918 584.014 657.19C584.176 656.462 584.378 655.842 584.553 655.128C584.85 654.116 585.2 653.078 585.551 652.054C587.881 652.659 590.292 652.896 592.695 652.755C594.704 652.364 597.171 651.286 598.088 649.331C598.326 648.878 598.467 648.38 598.501 647.869C598.535 647.359 598.462 646.846 598.285 646.366C598.108 645.885 597.833 645.447 597.476 645.08C597.119 644.713 596.689 644.425 596.214 644.235C593.315 643.184 588.772 646.379 587.074 648.549C587.074 648.616 586.71 649.115 586.346 649.708C586.723 648.711 587.087 647.713 587.492 646.716C588.651 643.898 589.905 641.054 591.172 638.209L591.94 636.416C593.046 636.672 597.238 637.576 599.287 637.171C601.337 636.767 603.763 635.702 604.68 633.734C604.919 633.281 605.059 632.783 605.093 632.272C605.127 631.761 605.054 631.249 604.877 630.769C604.7 630.288 604.425 629.85 604.068 629.483C603.711 629.116 603.281 628.828 602.806 628.638C599.908 627.586 595.365 630.781 593.666 632.952C593.666 633.033 593.235 633.626 592.83 634.3C593.491 632.749 594.178 631.186 594.717 629.608C595.737 626.922 596.575 624.171 597.225 621.372C597.616 621.466 602.509 622.612 604.788 622.167C606.81 621.763 609.263 620.698 610.18 618.743C610.418 618.289 610.559 617.791 610.592 617.279C610.625 616.768 610.55 616.255 610.372 615.774C610.194 615.294 609.917 614.856 609.559 614.49C609.2 614.123 608.769 613.836 608.293 613.647C605.408 612.582 600.851 615.791 599.166 617.961C599.045 618.109 597.724 620.266 597.279 621.048C597.273 621.017 597.273 620.985 597.279 620.954C597.843 618.187 598.168 615.377 598.249 612.555C598.329 610.033 598.261 607.507 598.047 604.993C597.872 602.66 597.575 600.53 597.292 598.657C597.131 597.646 596.955 596.715 596.794 595.853C596.794 595.853 597.697 592.24 597.724 591.997C598.034 589.301 597.036 583.801 594.232 582.561C593.76 582.361 593.252 582.263 592.74 582.274C592.227 582.285 591.723 582.403 591.26 582.622C590.797 582.841 590.385 583.155 590.052 583.544C589.718 583.933 589.471 584.388 589.325 584.879C588.624 586.942 589.622 589.422 590.781 591.121C591.94 592.819 595.661 595.165 596.578 595.772C596.74 596.661 596.888 597.632 597.036 598.697C597.279 600.571 597.535 602.741 597.656 605.033C597.656 605.653 597.656 606.314 597.724 606.961C597.454 605.882 597.077 604.399 597.023 604.265C596.039 601.69 592.628 597.295 589.554 597.457C589.044 597.497 588.548 597.644 588.098 597.889C587.649 598.134 587.256 598.471 586.945 598.878C586.635 599.286 586.414 599.754 586.297 600.252C586.179 600.75 586.169 601.268 586.265 601.771C586.589 603.928 588.624 605.667 590.444 606.651C592.264 607.635 596.794 607.999 597.764 608.093C597.764 609.536 597.764 611.005 597.697 612.542C597.555 615.338 597.172 618.116 596.551 620.846H596.376C596.254 619.821 595.944 617.664 595.89 617.489C595.203 614.793 592.291 610.075 589.217 609.9C588.705 609.887 588.197 609.981 587.724 610.177C587.251 610.373 586.824 610.666 586.471 611.037C586.118 611.408 585.846 611.848 585.674 612.33C585.501 612.812 585.432 613.325 585.47 613.836C585.564 616.006 587.397 617.961 589.096 619.134C591.051 620.482 596.187 621.372 596.389 621.412C595.686 624.103 594.813 626.746 593.774 629.325C593.019 631.24 592.17 633.14 591.293 635.041C591.293 634.327 590.822 631.496 590.781 631.294C590.08 628.597 587.182 623.879 584.041 623.704C583.529 623.691 583.021 623.786 582.549 623.982C582.076 624.178 581.65 624.471 581.298 624.842C580.946 625.213 580.676 625.654 580.505 626.136C580.334 626.618 580.267 627.13 580.307 627.64C580.401 629.811 582.234 631.765 583.919 632.938C585.82 634.286 590.754 635.136 591.172 635.203C590.768 636.066 590.377 636.929 589.972 637.805C588.624 640.622 587.276 643.44 586.103 646.271C585.672 647.241 585.294 648.225 584.903 649.209C584.769 648.118 584.486 646.149 584.445 645.988C583.758 643.291 580.846 638.573 577.772 638.398C577.26 638.385 576.752 638.48 576.278 638.676C575.805 638.872 575.379 639.164 575.026 639.535C574.673 639.906 574.401 640.347 574.229 640.829C574.056 641.311 573.987 641.824 574.025 642.334C574.119 644.505 575.952 646.459 577.651 647.632C579.349 648.805 583.475 649.641 584.647 649.857C584 651.488 583.407 653.119 582.908 654.764C582.706 655.478 582.45 656.193 582.288 656.88C582.126 657.568 581.951 658.228 581.776 658.943C581.479 660.372 581.196 661.639 580.954 662.987C580.819 663.661 580.724 664.335 580.603 664.955C580.603 663.836 580.603 662.057 580.603 661.895C580.32 659.199 578.163 654.036 575.211 653.389C574.707 653.296 574.19 653.311 573.692 653.432C573.194 653.552 572.728 653.776 572.322 654.089C571.917 654.402 571.582 654.796 571.338 655.247C571.095 655.698 570.949 656.194 570.91 656.705C570.89 656.974 570.89 657.244 570.91 657.514C569.806 659.671 569.272 662.075 569.36 664.497C569.36 664.672 569.765 666.734 569.994 667.772C569.616 666.977 569.252 666.182 568.875 665.346C568.322 664.133 567.796 662.852 567.271 661.598L566.502 659.603C566.233 658.943 566.057 658.255 565.828 657.581C565.518 656.583 565.235 655.532 564.952 654.48C567.229 653.697 569.371 652.565 571.301 651.124C572.771 649.681 574.227 647.43 573.998 645.273C573.948 644.762 573.791 644.268 573.537 643.822C573.284 643.376 572.939 642.988 572.526 642.685C572.113 642.381 571.64 642.167 571.139 642.058C570.637 641.949 570.119 641.947 569.616 642.051C566.624 642.766 564.588 647.942 564.372 650.692C564.372 650.787 564.372 651.366 564.372 652.04C564.13 651.016 563.887 649.978 563.671 648.926C563.078 645.934 562.566 642.874 562.04 639.8C561.932 639.153 561.811 638.519 561.703 637.872C562.768 637.481 566.758 635.917 568.241 634.448C569.724 632.979 571.167 630.754 570.87 628.597C570.82 628.088 570.664 627.596 570.411 627.151C570.158 626.707 569.814 626.321 569.402 626.018C568.99 625.716 568.519 625.503 568.019 625.395C567.52 625.286 567.003 625.284 566.502 625.389C563.496 626.103 561.474 631.28 561.258 634.017C561.258 634.124 561.258 634.812 561.258 635.594C560.948 633.936 560.611 632.278 560.234 630.646C559.603 627.84 558.783 625.079 557.78 622.383C558.158 622.248 562.876 620.509 564.521 618.878C566.165 617.247 567.432 615.184 567.149 613.027C567.082 612.552 566.921 612.095 566.676 611.682C566.431 611.27 566.107 610.91 565.722 610.623C565.337 610.336 564.9 610.128 564.435 610.011C563.969 609.893 563.485 609.869 563.011 609.94C560.018 610.654 557.996 615.831 557.78 618.568C557.78 618.77 557.848 621.264 557.915 622.194V622.1C556.87 619.475 555.593 616.949 554.1 614.55C552.771 612.408 551.322 610.342 549.759 608.363C548.317 606.502 546.901 604.898 545.621 603.496C544.933 602.728 544.272 602.054 543.666 601.42H543.733C543.733 601.42 542.493 597.902 542.385 597.699C541.131 595.246 537.289 591.229 534.297 591.714C533.793 591.808 533.315 592.006 532.894 592.297C532.472 592.588 532.117 592.965 531.851 593.403C531.585 593.84 531.414 594.329 531.35 594.837C531.286 595.345 531.33 595.861 531.479 596.351C532.032 598.454 534.243 599.978 536.144 600.76C538.044 601.541 542.453 601.461 543.544 601.434C544.165 602.094 544.893 602.782 545.526 603.618C546.766 605.06 548.155 606.691 549.57 608.565C549.934 609.064 550.312 609.616 550.689 610.142C549.88 609.387 548.735 608.363 548.613 608.268C546.375 606.664 541.118 604.885 538.637 606.718C538.237 607.033 537.907 607.429 537.67 607.879C537.432 608.33 537.291 608.825 537.257 609.333C537.222 609.842 537.295 610.351 537.47 610.83C537.646 611.308 537.919 611.744 538.273 612.11C539.729 613.715 542.399 614.052 544.448 613.863C546.497 613.674 550.501 611.517 551.35 611.032C552.172 612.218 552.981 613.445 553.749 614.78C555.178 617.187 556.387 619.718 557.362 622.342L557.214 622.423C556.54 621.641 555.098 620.01 554.963 619.889C552.914 618.042 547.885 615.696 545.216 617.193C544.772 617.461 544.391 617.821 544.097 618.248C543.804 618.676 543.605 619.161 543.515 619.672C543.424 620.182 543.444 620.706 543.572 621.209C543.7 621.711 543.935 622.18 544.259 622.585C545.607 624.351 548.141 624.971 550.204 625.011C552.563 625.011 557.362 622.962 557.538 622.882C558.444 625.526 559.174 628.228 559.721 630.97C560.153 632.979 560.49 635.014 560.813 637.117C560.355 636.538 558.468 634.421 558.306 634.259C556.257 632.426 551.229 630.067 548.559 631.563C548.117 631.833 547.737 632.193 547.445 632.621C547.153 633.049 546.955 633.534 546.865 634.043C546.774 634.553 546.793 635.077 546.92 635.579C547.047 636.081 547.28 636.55 547.602 636.955C548.883 638.708 551.485 639.342 553.547 639.368C555.852 639.368 560.463 637.441 560.84 637.265L561.285 640.083C561.744 643.17 562.188 646.257 562.714 649.29C562.903 650.342 563.132 651.366 563.348 652.404C562.633 651.569 561.312 650.086 561.191 649.964C559.142 648.131 554.1 645.772 551.431 647.268C550.989 647.538 550.609 647.899 550.317 648.326C550.025 648.754 549.827 649.239 549.736 649.749C549.646 650.258 549.665 650.782 549.792 651.284C549.919 651.786 550.151 652.255 550.474 652.661C551.754 654.413 554.37 655.033 556.419 655.074C558.468 655.114 562.391 653.537 563.483 653.078C563.847 654.791 564.264 656.476 564.736 658.12C564.965 658.835 565.141 659.563 565.397 660.237C565.653 660.911 565.882 661.585 566.111 662.232C566.651 663.58 567.136 664.847 567.675 666.101C567.931 666.721 568.201 667.314 568.457 667.934C567.864 666.977 566.907 665.494 566.799 665.359C565.06 663.243 560.436 660.142 557.564 661.315C557.093 661.515 556.669 661.812 556.32 662.187C555.971 662.562 555.705 663.007 555.539 663.491C555.374 663.976 555.313 664.49 555.36 665C555.407 665.511 555.561 666.005 555.812 666.451C556.81 668.393 559.29 669.404 561.312 669.754C563.469 670.051 568.16 668.851 568.727 668.703Z" fill="#7E57C2"/>
<path d="M563.658 94.9071H126.436V612.73H563.658V94.9071Z" fill="#263238"/>
<path d="M521.288 100.893C521.288 101.588 521.081 102.269 520.695 102.847C520.308 103.426 519.759 103.877 519.116 104.143C518.473 104.409 517.765 104.479 517.083 104.343C516.4 104.208 515.773 103.873 515.281 103.38C514.789 102.888 514.454 102.261 514.318 101.579C514.183 100.896 514.252 100.189 514.519 99.5461C514.785 98.9032 515.236 98.3536 515.814 97.967C516.393 97.5804 517.073 97.3741 517.769 97.3741C518.702 97.3741 519.597 97.7448 520.257 98.4046C520.917 99.0644 521.288 99.9594 521.288 100.893V100.893Z" fill="#7E57C2"/>
<path d="M534.485 100.893C534.485 101.588 534.279 102.269 533.892 102.847C533.506 103.426 532.956 103.877 532.313 104.143C531.67 104.409 530.963 104.479 530.28 104.343C529.598 104.208 528.971 103.873 528.479 103.38C527.987 102.888 527.652 102.261 527.516 101.579C527.38 100.896 527.45 100.189 527.716 99.5461C527.983 98.9032 528.433 98.3536 529.012 97.967C529.591 97.5804 530.271 97.3741 530.967 97.3741C531.9 97.3741 532.795 97.7448 533.455 98.4046C534.115 99.0644 534.485 99.9594 534.485 100.893V100.893Z" fill="#7E57C2"/>
<path d="M547.683 100.893C547.683 101.587 547.477 102.266 547.092 102.844C546.707 103.422 546.159 103.873 545.517 104.141C544.876 104.408 544.17 104.479 543.488 104.345C542.806 104.212 542.179 103.879 541.686 103.39C541.193 102.9 540.856 102.276 540.717 101.595C540.578 100.915 540.644 100.208 540.906 99.5646C541.168 98.9213 541.615 98.3699 542.19 97.9801C542.765 97.5902 543.443 97.3794 544.138 97.374C544.602 97.3705 545.062 97.4589 545.492 97.6341C545.922 97.8093 546.313 98.0679 546.643 98.395C546.973 98.7221 547.234 99.1111 547.413 99.5398C547.591 99.9684 547.683 100.428 547.683 100.893Z" fill="#7E57C2"/>
<path d="M563.658 106.339H126.436V624.162H563.658V106.339Z" fill="#7E57C2"/>
<path d="M248.504 136.091V126.654C248.504 124.258 247.553 121.959 245.86 120.263C244.166 118.567 241.869 117.612 239.472 117.609H146.967C144.568 117.609 142.267 118.562 140.571 120.258C138.875 121.954 137.922 124.255 137.922 126.654V136.091H126.436V624.162H563.658V136.091H248.504Z" fill="#263238"/>
<path d="M366.191 136.091V126.654C366.191 124.255 365.238 121.954 363.542 120.258C361.846 118.562 359.545 117.609 357.146 117.609H264.641C262.252 117.626 259.967 118.587 258.283 120.281C256.599 121.975 255.653 124.266 255.649 126.654V136.091H126.436V624.162H563.658V136.091H366.191Z" fill="#263238"/>
<path d="M492.452 136.091V126.654C492.452 124.267 491.509 121.976 489.827 120.282C488.145 118.587 485.862 117.626 483.474 117.609H390.915C388.515 117.609 386.213 118.561 384.514 120.257C382.816 121.953 381.86 124.254 381.856 126.654V136.091H126.436V624.162H563.658V136.091H492.452Z" fill="white"/>
<path d="M553.857 225.859H136.708V360.505H553.857V225.859Z" fill="#7E57C2"/>
<path d="M243.638 372.382H136.708V599.438H243.638V372.382Z" fill="#7E57C2"/>
<path d="M546.443 360.505H409.869V209.035L546.443 252.659V360.505Z" fill="white"/>
<path d="M546.443 360.505H409.869V333.153L546.443 341.039V360.505Z" fill="white"/>
<path d="M439.783 240.351L418.78 234.676V225.199L439.783 231.306V240.351Z" fill="#263238"/>
<path d="M443.396 247.819L414.749 240.486V230.928L443.396 238.841V247.819Z" fill="white"/>
<path d="M470.735 248.723L452.617 243.829V235.04L470.735 240.311V248.723Z" fill="#263238"/>
<path d="M473.862 255.611L449.152 249.289V240.432L473.862 247.253V255.611Z" fill="white"/>
<path d="M497.656 256.002L481.87 251.742V243.546L497.656 248.13V256.002Z" fill="#263238"/>
<path d="M500.393 262.392L478.85 256.879V248.628L500.393 254.573V262.392Z" fill="white"/>
<path d="M521.274 262.392L507.402 258.645V250.974L521.274 255.005V262.392Z" fill="#263238"/>
<path d="M523.687 268.351L504.76 263.511V255.787L523.687 261.004V268.351Z" fill="white"/>
<path d="M542.183 268.054L529.875 264.724V257.512L542.183 261.085V268.054Z" fill="#263238"/>
<path d="M544.326 273.622L527.543 269.335V262.069L544.326 266.706V273.622Z" fill="white"/>
<path d="M439.783 266.504L418.78 262.055V252.578L439.783 257.458V266.504Z" fill="#263238"/>
<path d="M443.396 273.756L414.749 268.108V258.55L443.396 264.778V273.756Z" fill="white"/>
<path d="M470.735 273.055L452.617 269.213V260.424L470.735 264.63V273.055Z" fill="#263238"/>
<path d="M473.862 279.742L449.152 274.889V266.019L473.862 271.397V279.742Z" fill="white"/>
<path d="M497.656 278.744L481.87 275.401V267.218L497.656 270.872V278.744Z" fill="#263238"/>
<path d="M500.393 284.972L478.85 280.726V272.476L500.393 277.154V284.972Z" fill="white"/>
<path d="M521.274 283.746L507.402 280.807V273.136L521.274 276.358V283.746Z" fill="#263238"/>
<path d="M523.687 289.556L504.76 285.835V278.097L523.687 282.222V289.556Z" fill="white"/>
<path d="M542.183 288.167L529.875 285.566V278.353L542.183 281.198V288.167Z" fill="#263238"/>
<path d="M544.326 293.614L527.543 290.311V283.058L544.326 286.698V293.614Z" fill="white"/>
<path d="M439.783 292.643L418.78 289.435V279.958L439.783 283.597V292.643Z" fill="#263238"/>
<path d="M443.396 299.68L414.749 295.73V286.172L443.396 290.702V299.68Z" fill="white"/>
<path d="M470.735 297.375L452.617 294.611V285.822L470.735 288.949V297.375Z" fill="#263238"/>
<path d="M473.862 303.886L449.152 300.475V291.619L473.862 295.528V303.886Z" fill="white"/>
<path d="M497.656 301.486L481.87 299.073V290.877L497.656 293.614V301.486Z" fill="#263238"/>
<path d="M500.393 307.553L478.85 304.574V296.323L500.393 299.734V307.553Z" fill="white"/>
<path d="M521.274 305.099L507.402 302.969V295.299L521.274 297.698V305.099Z" fill="#263238"/>
<path d="M523.687 310.761L504.76 308.146V300.421L523.687 303.428V310.761Z" fill="white"/>
<path d="M542.183 308.294L529.875 306.407V299.195L542.183 301.325V308.294Z" fill="#263238"/>
<path d="M544.326 313.619L527.543 311.3V304.034L544.326 306.69V313.619Z" fill="white"/>
<path d="M439.783 318.796L418.78 316.814V307.337L439.783 309.737V318.796Z" fill="#263238"/>
<path d="M443.396 325.617L414.749 323.352V313.781L443.396 316.639V325.617Z" fill="white"/>
<path d="M470.735 321.694L452.617 319.996V311.206L470.735 313.282V321.694Z" fill="#263238"/>
<path d="M473.862 328.03L449.152 326.075V317.205L473.862 319.672V328.03Z" fill="white"/>
<path d="M497.656 324.228L481.87 322.746V314.549L497.656 316.356V324.228Z" fill="#263238"/>
<path d="M500.393 330.133L478.85 328.421V320.171L500.393 322.314V330.133Z" fill="white"/>
<path d="M521.274 326.439L507.402 325.145V317.461L521.274 319.052V326.439Z" fill="#263238"/>
<path d="M523.687 331.966L504.76 330.47V322.746L523.687 324.633V331.966Z" fill="white"/>
<path d="M542.183 328.408L529.875 327.248V320.036L542.183 321.438V328.408Z" fill="#263238"/>
<path d="M544.326 333.611L527.543 332.277V325.01L544.326 326.682V333.611Z" fill="white"/>
<path d="M379.78 218.728H344.973V360.451H379.78V218.728Z" fill="#263238"/>
<path d="M410.961 209.75H376.154V360.451H410.961V209.75Z" fill="#263238"/>
<path d="M344.973 360.303L204.638 360.505V246.903L344.973 218.728V360.303Z" fill="white"/>
<path d="M344.973 360.303L204.638 360.505V339.988L344.973 334.743V360.303Z" fill="white"/>
<path d="M224.01 261.031L210.017 263.403V256.097L224.01 253.535V261.031Z" fill="#263238"/>
<path d="M226.625 266.019L207.536 269.092V261.813L226.625 258.496V266.019Z" fill="white"/>
<path d="M248.801 256.811L233.621 259.399V251.783L248.801 249.006V256.811Z" fill="#263238"/>
<path d="M251.645 261.988L230.939 265.331V257.741L251.645 254.142V261.988Z" fill="white"/>
<path d="M275.762 252.228L259.235 255.032V247.092L275.762 244.072V252.228Z" fill="#263238"/>
<path d="M278.863 257.607L256.323 261.233V253.333L278.863 249.424V257.607Z" fill="white"/>
<path d="M305.204 247.213L287.14 250.286V241.996L305.204 238.68V247.213Z" fill="#263238"/>
<path d="M308.602 252.821L283.959 256.784V248.534L308.602 244.247V252.821Z" fill="white"/>
<path d="M337.477 241.713L317.661 245.083V236.401L337.477 232.788V241.713Z" fill="#263238"/>
<path d="M341.212 247.563L314.183 251.918V243.276L341.212 238.585V247.563Z" fill="white"/>
<path d="M224.01 282.667L210.017 284.541V277.221L224.01 275.185V282.667Z" fill="#263238"/>
<path d="M226.625 287.75L207.536 290.122V282.843L226.625 280.227V287.75Z" fill="white"/>
<path d="M248.801 279.364L233.621 281.387V273.77L248.801 271.559V279.364Z" fill="#263238"/>
<path d="M251.645 284.649L230.939 287.224V279.634L251.645 276.803V284.649Z" fill="white"/>
<path d="M275.762 275.765L259.235 277.962V270.022L275.762 267.609V275.765Z" fill="#263238"/>
<path d="M278.863 281.265L256.323 284.069V276.156L278.863 273.069V281.265Z" fill="white"/>
<path d="M305.204 271.829L287.14 274.242V265.951L305.204 263.309V271.829Z" fill="#263238"/>
<path d="M308.602 277.572L283.959 280.632V272.368L308.602 268.998V277.572Z" fill="white"/>
<path d="M337.477 267.528L317.661 270.171V261.489L337.477 258.591V267.528Z" fill="#263238"/>
<path d="M341.212 273.514L314.183 276.871V268.229L341.212 264.536V273.514Z" fill="white"/>
<path d="M224.01 304.304L210.017 305.665V298.345L224.01 296.822V304.304Z" fill="#263238"/>
<path d="M226.625 309.494L207.536 311.166V303.886L226.625 301.972V309.494Z" fill="white"/>
<path d="M248.801 301.904L233.621 303.374V295.771L248.801 294.112V301.904Z" fill="#263238"/>
<path d="M251.645 307.297L230.939 309.117V301.54L251.645 299.464V307.297Z" fill="white"/>
<path d="M275.762 299.303L259.235 300.907V292.967L275.762 291.16V299.303Z" fill="#263238"/>
<path d="M278.863 304.911L256.323 306.892V298.992L278.863 296.728V304.911Z" fill="white"/>
<path d="M305.204 296.458L287.14 298.197V289.906L305.204 287.925V296.458Z" fill="#263238"/>
<path d="M308.602 302.309L283.959 304.466V296.215L308.602 293.748V302.309Z" fill="white"/>
<path d="M337.477 293.331L317.661 295.245V286.563L337.477 284.393V293.331Z" fill="#263238"/>
<path d="M341.212 299.464L314.183 301.823V293.182L341.212 290.473V299.464Z" fill="white"/>
<path d="M224.01 325.954L210.017 326.79V319.483L224.01 318.459V325.954Z" fill="#263238"/>
<path d="M226.625 331.225L207.536 332.196V324.916L226.625 323.703V331.225Z" fill="white"/>
<path d="M248.801 324.458L233.621 325.374V317.758L248.801 316.652V324.458Z" fill="#263238"/>
<path d="M251.645 329.958L230.939 331.009V323.433L251.645 322.112V329.958Z" fill="white"/>
<path d="M275.762 322.84L259.235 323.838V315.897L275.762 314.698V322.84Z" fill="#263238"/>
<path d="M278.863 328.569L256.323 329.715V321.815L278.863 320.386V328.569Z" fill="white"/>
<path d="M305.204 321.074L287.14 322.166V313.862L305.204 312.554V321.074Z" fill="#263238"/>
<path d="M308.602 327.059L283.959 328.313V320.063L308.602 318.499V327.059Z" fill="white"/>
<path d="M337.477 319.133L317.661 320.333V311.651L337.477 310.208V319.133Z" fill="#263238"/>
<path d="M341.212 325.401L314.183 326.776V318.135L341.212 316.423V325.401Z" fill="white"/>
<path d="M406.378 360.505H359.599L397.022 197.374L406.378 207.323V360.505Z" fill="white"/>
<path d="M397.022 360.505H350.257V207.418L397.022 197.374V360.505Z" fill="white"/>
<path d="M417.823 385.418C414.694 385.418 411.694 386.66 409.482 388.873C407.27 391.085 406.027 394.085 406.027 397.213C406.027 403.738 417.823 417.057 417.823 417.057C417.823 417.057 429.632 403.738 429.632 397.213C429.628 394.084 428.383 391.084 426.168 388.872C423.954 386.66 420.952 385.418 417.823 385.418V385.418ZM417.823 401.487C417.023 401.487 416.241 401.25 415.576 400.805C414.911 400.361 414.392 399.729 414.086 398.99C413.78 398.251 413.7 397.438 413.856 396.654C414.012 395.869 414.397 395.148 414.963 394.583C415.529 394.017 416.249 393.632 417.034 393.476C417.818 393.32 418.631 393.4 419.37 393.706C420.109 394.012 420.741 394.531 421.185 395.196C421.63 395.861 421.867 396.643 421.867 397.443C421.867 398.515 421.441 399.544 420.683 400.302C419.924 401.061 418.895 401.487 417.823 401.487Z" fill="#263238"/>
<path d="M464.83 399.896C464.021 399.343 452.077 392.05 451.349 391.511L451.606 391.228L454.302 388.451C454.392 388.332 454.519 388.246 454.663 388.207C454.807 388.168 454.959 388.178 455.097 388.235L459.276 389.583L465.585 391.659L470.276 393.237L470.964 393.425C471.126 393.264 471.287 393.129 471.422 392.98L477.475 386.685C477.945 386.16 478.559 385.785 479.241 385.606C479.867 385.464 480.522 385.516 481.118 385.757C481.713 385.999 482.22 386.416 482.571 386.955C482.925 387.494 483.098 388.133 483.064 388.778C483.03 389.423 482.791 390.041 482.382 390.54C481.907 391.083 481.403 391.601 480.872 392.091L475.628 397.119L475.48 397.267C475.353 397.35 475.261 397.478 475.224 397.626C475.187 397.773 475.206 397.929 475.278 398.063C475.75 399.411 476.181 400.759 476.626 402.107C477.165 403.711 477.704 405.329 478.23 406.933C478.922 408.991 479.605 411.045 480.279 413.094C480.285 413.139 480.285 413.184 480.279 413.229C480.441 413.822 480.603 413.808 480.01 414.388C479.187 415.183 478.392 415.992 477.583 416.801C477.435 416.949 477.273 417.071 477.152 417.192C477.03 417.313 476.882 417.03 476.815 416.909C475.673 415.111 474.536 413.269 473.404 411.382C472.056 409.171 470.708 406.946 469.292 404.722C469.171 404.533 469.063 404.318 468.928 404.129C468.841 404.011 468.742 403.903 468.632 403.805C468.214 404.183 467.823 404.547 467.445 404.924C465.693 406.596 463.945 408.272 462.201 409.953C461.514 410.6 461.514 410.613 461.676 411.584L462.08 414.064C462.08 414.361 462.175 414.657 462.215 414.968C461.746 415.521 461.242 416.044 460.705 416.531C460.234 417.058 459.725 417.549 459.182 418.001C458.854 417.319 458.583 416.611 458.373 415.884C458.117 415.197 457.874 414.536 457.631 413.781C457.389 413.026 457.133 412.433 456.877 411.651C454.76 410.869 452.63 410.155 450.46 409.36C450.507 409.267 450.565 409.181 450.635 409.103C451.471 408.268 452.32 407.432 453.142 406.583C453.241 406.467 453.371 406.381 453.517 406.336C453.662 406.291 453.817 406.287 453.965 406.326C454.693 406.461 455.434 406.569 456.162 406.69L457.51 406.906C457.632 406.948 457.763 406.951 457.886 406.914C458.009 406.878 458.118 406.805 458.198 406.704C458.304 406.577 458.421 406.46 458.548 406.353L464.345 400.3C464.601 400.247 464.601 400.098 464.83 399.896Z" fill="#263238"/>
<path d="M521.396 388.424H505.219C504.907 388.432 504.607 388.542 504.363 388.737C504.12 388.931 503.947 389.2 503.871 389.502L501.848 397.982H524.766L522.744 389.502C522.667 389.2 522.494 388.931 522.251 388.737C522.007 388.542 521.707 388.432 521.396 388.424V388.424Z" fill="#263238"/>
<path d="M520.304 390.015H506.351L504.612 397.281H522.043L520.304 390.015Z" fill="white"/>
<path d="M500.325 407.162H505.717V414.037C505.717 414.245 505.635 414.444 505.488 414.59C505.342 414.737 505.143 414.819 504.936 414.819H501.134C500.927 414.819 500.728 414.737 500.581 414.59C500.434 414.444 500.352 414.245 500.352 414.037V407.162H500.325Z" fill="#263238"/>
<path d="M521.49 407.162H526.882V414.037C526.882 414.245 526.8 414.444 526.653 414.59C526.507 414.737 526.308 414.819 526.1 414.819H522.299C522.091 414.819 521.893 414.737 521.746 414.59C521.599 414.444 521.517 414.245 521.517 414.037V407.162H521.49Z" fill="#263238"/>
<path d="M516.057 389.489H510.907V391.403H516.057V389.489Z" fill="#263238"/>
<path d="M526.855 396.445H500.554C499.371 396.445 498.411 397.405 498.411 398.588V407.297C498.411 408.481 499.371 409.44 500.554 409.44H526.855C528.039 409.44 528.999 408.481 528.999 407.297V398.588C528.999 397.405 528.039 396.445 526.855 396.445Z" fill="#263238"/>
<path d="M508.36 402.188C508.362 402.871 508.162 403.539 507.785 404.109C507.407 404.678 506.869 405.123 506.239 405.386C505.608 405.649 504.914 405.719 504.244 405.588C503.573 405.456 502.957 405.128 502.473 404.646C501.989 404.164 501.659 403.549 501.525 402.88C501.391 402.21 501.458 401.515 501.719 400.884C501.98 400.252 502.422 399.713 502.99 399.333C503.558 398.953 504.225 398.75 504.909 398.75C505.822 398.75 506.697 399.112 507.344 399.756C507.991 400.401 508.356 401.275 508.36 402.188V402.188Z" fill="white"/>
<path d="M526.195 402.188C526.195 402.868 525.993 403.532 525.615 404.098C525.238 404.663 524.701 405.104 524.073 405.364C523.444 405.624 522.753 405.692 522.086 405.559C521.42 405.427 520.807 405.099 520.326 404.619C519.846 404.138 519.518 403.525 519.386 402.858C519.253 402.192 519.321 401.5 519.581 400.872C519.841 400.244 520.282 399.707 520.847 399.33C521.413 398.952 522.077 398.75 522.757 398.75C523.669 398.75 524.543 399.112 525.188 399.757C525.832 400.402 526.195 401.276 526.195 402.188V402.188Z" fill="white"/>
<path d="M517.58 400.098H509.937V401.419H517.58V400.098Z" fill="white"/>
<path d="M517.58 402.417H509.937V403.738H517.58V402.417Z" fill="white"/>
<path d="M371.233 412.838H278.634V446.984H371.233V412.838Z" fill="white"/>
<path d="M283.959 441.727H365.827C367.258 441.727 368.629 442.295 369.64 443.306C370.652 444.318 371.22 445.689 371.22 447.119V471.304H278.566V447.092C278.574 445.667 279.145 444.302 280.155 443.297C281.166 442.291 282.533 441.727 283.959 441.727V441.727Z" fill="white"/>
<path d="M308.669 440.851L304.679 439.934H287.14L282.22 440.851L283.46 437.17V427.019L282.22 423.326L287.302 424.404H305.447L308.669 423.326L307.442 427.626V436.24L308.669 440.851Z" fill="#7E57C2"/>
<path d="M336.965 440.851L332.975 439.934H315.436L310.516 440.851L311.756 437.17V427.019L310.516 423.326L315.598 424.404H333.743L336.965 423.326L335.738 427.626V436.24L336.965 440.851Z" fill="#7E57C2"/>
<path d="M365.261 440.851L361.271 439.934H343.732L338.812 440.851L340.039 437.17V427.019L338.812 423.326L343.894 424.404H362.039L365.261 423.326L364.034 427.626V436.24L365.261 440.851Z" fill="#7E57C2"/>
<path d="M277.07 417.313H263.32V434.501H277.07V417.313Z" fill="#263238"/>
<path d="M277.758 443.102H262.632V447.227H277.758V443.102Z" fill="#263238"/>
<path d="M387.06 417.313H373.309V434.501H387.06V417.313Z" fill="#263238"/>
<path d="M387.747 443.102H372.622V447.227H387.747V443.102Z" fill="#263238"/>
<path d="M277.758 559.293H262.632V563.418H277.758V559.293Z" fill="#263238"/>
<path d="M387.747 559.293H372.622V563.418H387.747V559.293Z" fill="#263238"/>
<path d="M371.233 529.028H278.634V563.175H371.233V529.028Z" fill="#263238"/>
<path d="M283.959 557.931H365.827C367.258 557.931 368.629 558.499 369.64 559.511C370.652 560.522 371.22 561.893 371.22 563.323V587.508H278.566V563.297C278.574 561.871 279.145 560.506 280.155 559.501C281.166 558.496 282.533 557.931 283.959 557.931Z" fill="white"/>
<path d="M148.073 165.398V174.592H145.794V154.155H148.073V163.349H153.087V154.155H155.366V174.592H153.087V165.398H148.073Z" fill="#263238"/>
<path d="M157.536 159.089C157.536 155.961 159.073 153.939 162.2 153.939C165.328 153.939 166.905 155.961 166.905 159.089V169.658C166.905 172.759 165.355 174.794 162.2 174.794C159.046 174.794 157.536 172.759 157.536 169.658V159.089ZM159.774 169.779C159.774 171.64 160.569 172.718 162.2 172.718C163.832 172.718 164.627 171.64 164.627 169.779V158.995C164.627 157.148 163.872 156.042 162.2 156.042C160.529 156.042 159.774 157.148 159.774 158.995V169.779Z" fill="#263238"/>
<path d="M172.068 174.592V156.218H168.307V154.155H178.121V156.218H174.347V174.592H172.068Z" fill="#263238"/>
<path d="M186.897 163.201V165.25H181.896V172.516H188.03V174.592H179.618V154.155H188.03V156.218H181.896V163.201H186.897Z" fill="#263238"/>
<path d="M190.173 174.592V154.155H192.451V172.516H198.288V174.592H190.173Z" fill="#263238"/>
<path d="M209.127 154.155C212.308 154.155 213.562 155.665 213.562 158.671V159.682C213.562 161.839 212.955 163.187 211.176 163.726C213.158 164.279 213.872 165.856 213.872 168.108V169.833C213.872 172.893 212.389 174.619 209.208 174.619H204.503V154.155H209.127ZM208.574 162.823C210.381 162.823 211.27 162.244 211.27 160.127V158.941C211.27 157.121 210.664 156.245 209.033 156.245H206.781V162.85L208.574 162.823ZM209.248 172.516C210.906 172.516 211.661 171.64 211.661 169.739V167.932C211.661 165.654 210.758 164.899 208.803 164.899H206.822V172.516H209.248Z" fill="#263238"/>
<path d="M215.813 159.089C215.813 155.961 217.364 153.939 220.478 153.939C223.592 153.939 225.182 155.961 225.182 159.089V169.658C225.182 172.759 223.632 174.794 220.478 174.794C217.323 174.794 215.813 172.759 215.813 169.658V159.089ZM218.065 169.779C218.065 171.64 218.847 172.718 220.478 172.718C222.109 172.718 222.904 171.64 222.904 169.779V158.995C222.904 157.148 222.149 156.042 220.478 156.042C218.806 156.042 218.065 157.148 218.065 158.995V169.779Z" fill="#263238"/>
<path d="M227.164 159.089C227.164 155.961 228.714 153.939 231.842 153.939C234.97 153.939 236.547 155.961 236.547 159.089V169.658C236.547 172.759 234.997 174.794 231.842 174.794C228.688 174.794 227.164 172.759 227.164 169.658V159.089ZM229.415 169.779C229.415 171.64 230.211 172.718 231.842 172.718C233.473 172.718 234.269 171.64 234.269 169.779V158.995C234.269 157.148 233.5 156.042 231.842 156.042C230.184 156.042 229.415 157.148 229.415 158.995V169.779Z" fill="#263238"/>
<path d="M242.168 165.708L240.969 167.73V174.592H238.69V154.155H240.969V164.023L246.361 154.155H248.666L243.516 163.47L248.909 174.592H246.577L242.168 165.708Z" fill="#263238"/>
<path d="M252.953 154.155V174.592H250.675V154.155H252.953Z" fill="#263238"/>
<path d="M257.28 174.592H255.231V154.155H258.116L262.848 168.984V154.155H264.87V174.592H262.497L257.28 158.064V174.592Z" fill="#263238"/>
<path d="M276.221 159.089V160.842H274.064V158.968C274.064 157.121 273.336 156.015 271.664 156.015C269.993 156.015 269.278 157.121 269.278 158.968V169.752C269.278 171.586 270.033 172.691 271.664 172.691C273.295 172.691 274.064 171.586 274.064 169.752V165.708H271.961V163.646H276.221V169.658C276.221 172.759 274.765 174.794 271.61 174.794C268.456 174.794 267.027 172.759 267.027 169.658V159.089C267.027 155.988 268.483 153.939 271.61 153.939C274.738 153.939 276.221 155.988 276.221 159.089Z" fill="#263238"/>
<path d="M417.823 501.164C414.694 501.164 411.694 502.406 409.482 504.618C407.27 506.831 406.027 509.831 406.027 512.959C406.027 519.484 417.823 532.803 417.823 532.803C417.823 532.803 429.632 519.484 429.632 512.959C429.628 509.83 428.383 506.829 426.168 504.618C423.954 502.406 420.952 501.164 417.823 501.164V501.164ZM417.823 517.233C417.023 517.233 416.241 516.996 415.576 516.551C414.911 516.107 414.392 515.475 414.086 514.736C413.78 513.997 413.7 513.184 413.856 512.399C414.012 511.615 414.397 510.894 414.963 510.329C415.529 509.763 416.249 509.378 417.034 509.222C417.818 509.066 418.631 509.146 419.37 509.452C420.109 509.758 420.741 510.277 421.185 510.942C421.63 511.607 421.867 512.389 421.867 513.189C421.867 514.261 421.441 515.29 420.683 516.048C419.924 516.807 418.895 517.233 417.823 517.233Z" fill="#263238"/>
<path d="M464.83 515.642C464.021 515.089 452.077 507.796 451.349 507.257C451.429 507.157 451.514 507.063 451.606 506.974L454.302 504.197C454.392 504.078 454.519 503.992 454.663 503.953C454.807 503.914 454.959 503.924 455.097 503.981L459.276 505.329L465.585 507.405L470.276 508.982L470.964 509.171C471.126 509.009 471.287 508.875 471.422 508.726C473.444 506.623 475.467 504.52 477.475 502.431C477.945 501.906 478.559 501.53 479.241 501.352C479.867 501.21 480.522 501.262 481.118 501.503C481.713 501.744 482.22 502.162 482.571 502.7C482.925 503.24 483.098 503.879 483.064 504.524C483.03 505.169 482.791 505.787 482.382 506.286C481.907 506.829 481.403 507.347 480.872 507.837L475.628 512.865L475.48 513.013C475.353 513.096 475.261 513.224 475.224 513.371C475.187 513.519 475.206 513.675 475.278 513.809C475.75 515.157 476.181 516.505 476.626 517.853C477.165 519.457 477.704 521.075 478.23 522.679C478.922 524.746 479.605 526.8 480.279 528.84C480.285 528.884 480.285 528.93 480.279 528.974C480.441 529.568 480.603 529.554 480.01 530.134C479.187 530.929 478.392 531.738 477.583 532.547C477.435 532.695 477.273 532.816 477.152 532.938C477.03 533.059 476.882 532.776 476.815 532.655C475.673 530.857 474.536 529.015 473.404 527.128C472.056 524.917 470.708 522.692 469.292 520.468C469.171 520.279 469.063 520.064 468.928 519.875C468.841 519.757 468.742 519.648 468.632 519.551C468.214 519.929 467.823 520.293 467.445 520.67C465.693 522.342 463.945 524.018 462.201 525.699C461.514 526.346 461.514 526.346 461.676 527.33L462.08 529.81C462.08 530.107 462.175 530.403 462.215 530.713C461.746 531.267 461.242 531.79 460.705 532.277C460.234 532.804 459.725 533.295 459.182 533.747C458.854 533.065 458.583 532.357 458.373 531.63C458.117 530.943 457.874 530.282 457.631 529.527C457.389 528.772 457.133 528.179 456.877 527.384C454.76 526.615 452.63 525.901 450.46 525.105C450.507 525.013 450.565 524.927 450.635 524.849C451.471 524 452.32 523.178 453.142 522.328C453.241 522.213 453.371 522.127 453.517 522.082C453.662 522.036 453.817 522.033 453.965 522.072C454.693 522.207 455.434 522.315 456.162 522.436L457.51 522.652C457.633 522.694 457.766 522.696 457.889 522.657C458.013 522.618 458.121 522.541 458.198 522.436C458.308 522.317 458.425 522.205 458.548 522.099L464.345 516.046C464.601 515.992 464.601 515.844 464.83 515.642Z" fill="#263238"/>
<path d="M521.396 504.17H505.219C504.907 504.178 504.607 504.288 504.363 504.482C504.12 504.677 503.947 504.946 503.871 505.248L501.848 513.728H524.766L522.744 505.248C522.667 504.946 522.494 504.677 522.251 504.482C522.007 504.288 521.707 504.178 521.396 504.17V504.17Z" fill="#263238"/>
<path d="M520.304 505.761H506.351L504.612 513.027H522.043L520.304 505.761Z" fill="white"/>
<path d="M500.325 522.908H505.717V529.783C505.717 529.991 505.635 530.19 505.488 530.336C505.342 530.483 505.143 530.565 504.936 530.565H501.134C500.927 530.565 500.728 530.483 500.581 530.336C500.434 530.19 500.352 529.991 500.352 529.783V522.908H500.325Z" fill="#263238"/>
<path d="M521.49 522.908H526.882V529.783C526.882 529.991 526.8 530.19 526.653 530.336C526.507 530.483 526.308 530.565 526.1 530.565H522.299C522.091 530.565 521.893 530.483 521.746 530.336C521.599 530.19 521.517 529.991 521.517 529.783V522.908H521.49Z" fill="#263238"/>
<path d="M516.057 505.235H510.907V507.149H516.057V505.235Z" fill="#263238"/>
<path d="M526.855 512.191H500.554C499.371 512.191 498.411 513.151 498.411 514.334V523.043C498.411 524.227 499.371 525.186 500.554 525.186H526.855C528.039 525.186 528.999 524.227 528.999 523.043V514.334C528.999 513.151 528.039 512.191 526.855 512.191Z" fill="#263238"/>
<path d="M508.36 517.934C508.362 518.617 508.162 519.285 507.785 519.855C507.407 520.424 506.869 520.868 506.239 521.132C505.608 521.395 504.914 521.465 504.244 521.334C503.573 521.202 502.957 520.874 502.473 520.392C501.989 519.91 501.659 519.295 501.525 518.625C501.391 517.956 501.458 517.261 501.719 516.63C501.98 515.998 502.422 515.458 502.99 515.079C503.558 514.699 504.225 514.496 504.909 514.496C505.822 514.496 506.697 514.858 507.344 515.502C507.991 516.146 508.356 517.021 508.36 517.934V517.934Z" fill="white"/>
<path d="M526.195 517.934C526.195 518.614 525.993 519.278 525.615 519.844C525.238 520.409 524.701 520.849 524.073 521.11C523.444 521.37 522.753 521.438 522.086 521.305C521.42 521.173 520.807 520.845 520.326 520.364C519.846 519.884 519.518 519.271 519.386 518.604C519.253 517.938 519.321 517.246 519.581 516.618C519.841 515.99 520.282 515.453 520.847 515.075C521.413 514.698 522.077 514.496 522.757 514.496C523.669 514.496 524.543 514.858 525.188 515.503C525.832 516.148 526.195 517.022 526.195 517.934V517.934Z" fill="white"/>
<path d="M517.58 515.844H509.937V517.165H517.58V515.844Z" fill="white"/>
<path d="M517.58 518.163H509.937V519.484H517.58V518.163Z" fill="white"/>
<path d="M296.749 531.607L284.796 543.561L296.749 555.514L308.703 543.561L296.749 531.607Z" fill="#7E57C2"/>
<path d="M324.735 531.608L312.781 543.561L324.735 555.515L336.688 543.561L324.735 531.608Z" fill="#7E57C2"/>
<path d="M352.711 531.605L340.757 543.558L352.711 555.512L364.664 543.558L352.711 531.605Z" fill="#7E57C2"/>
<path d="M553.844 371.95H543.288V604.278H553.844V371.95Z" fill="#D9D9D9"/>
<path d="M553.844 440.379H543.288V495.569H553.844V440.379Z" fill="#EDEDED"/>
<path d="M195.174 271.707C195.174 271.707 196.63 280.133 194.797 284.528C192.963 288.922 190.402 290.014 189.674 291.848C188.946 293.681 190.402 298.076 190.78 299.936C191.157 301.796 191.871 303.603 188.946 303.98C187.605 304.172 186.255 304.294 184.902 304.344C184.902 304.344 177.946 313.134 173.187 313.134C168.428 313.134 164.411 305.773 158.587 295.838C152.764 285.903 156.754 280.092 163.71 275.334C170.666 270.575 195.174 271.707 195.174 271.707Z" fill="white"/>
<path d="M185.198 291.888C184.605 293.398 183.662 294.436 183.095 294.207C182.529 293.978 182.556 292.589 183.095 291.079C183.635 289.569 184.632 288.545 185.198 288.761C185.765 288.976 185.805 290.446 185.198 291.888Z" fill="#263238"/>
<path d="M176.49 274.269L175.398 363.633C175.398 363.633 168.428 363.997 159.639 363.633C150.849 363.269 138.407 359.589 124.117 350.449C109.827 341.309 115.692 312.015 115.692 312.015L137.665 285.283L176.49 274.269Z" fill="#263238"/>
<path d="M146.455 246.444C146.455 246.444 138.771 255.962 135.468 264.387C132.165 272.813 136.209 281.602 136.209 281.602L194.797 261.826C194.797 261.826 194.797 257.054 187.113 250.462C179.429 243.87 156.714 241.308 151.591 242.05C146.468 242.791 146.455 246.444 146.455 246.444Z" fill="#7D7D7D"/>
<path d="M150.122 223.729C150.122 223.729 134.376 228.502 131.451 235.862C128.525 243.223 136.573 250.502 142.06 252.336C147.547 254.169 164.034 248.291 166.609 242.818C169.183 237.345 168.024 231.13 163.306 226.304C158.587 221.478 151.955 223.042 150.122 223.729Z" fill="white"/>
<path d="M146.091 273.177C146.091 273.177 136.573 276.83 133.958 278.3C131.343 279.769 132.489 282.694 133.594 284.892C134.699 287.089 134.322 289.286 136.155 289.286C137.989 289.286 172.769 277.936 184.861 275.01C196.954 272.085 198.046 275.01 198.774 271.343C199.502 267.677 200.243 259.993 197.682 258.159C195.12 256.326 165.503 264.751 146.091 273.177Z" fill="#7D7D7D"/>
<path d="M89.7006 465.264L98.1126 537.75C98.1126 537.75 86.7618 555.693 83.8365 568.878C80.9111 582.062 65.8936 613.189 65.8936 613.189L79.4417 620.509C79.4417 620.509 104.341 583.518 112.402 570.697C120.464 557.877 124.535 552.391 124.535 547.632C124.535 542.873 134.794 473.326 134.794 473.326L89.7006 465.264Z" fill="#263238"/>
<path d="M87.5033 620.118C87.5033 620.118 92.6664 622.329 91.4397 625.78C90.2129 629.231 75.9503 634.637 75.4515 635.365C74.9527 636.093 87.5033 620.118 87.5033 620.118Z" fill="#7D7D7D"/>
<path d="M59.706 605.114C60.4475 605.855 88.9863 619.134 88.9863 619.134C88.9863 619.134 77.4197 636.902 75.0067 640.784C72.5936 644.666 78.6869 653.577 80.399 656.772C82.1111 659.967 92.2082 665.629 94.1763 666.613C96.1445 667.597 94.6617 668.824 94.1763 672.262C93.691 675.699 92.6935 676.441 90.24 676.441C87.7865 676.441 71.7848 674.729 66.6216 671.776C61.4585 668.824 60.2318 663.688 58.0209 661.693C55.8101 659.698 55.0686 659.724 55.0686 659.724L52.8443 662.919C52.8443 662.919 49.9055 663.162 44.985 659.967C42.0418 658.056 39.7295 655.317 38.339 652.094C38.339 652.094 43.5021 642.752 46.9532 640.285C50.4043 637.818 53.3431 632.669 54.3272 629.501C55.3113 626.333 59.706 605.114 59.706 605.114Z" fill="#7D7D7D"/>
<path d="M85.5351 672.262C79.3879 671.776 66.352 668.083 61.6742 660.452C57.7378 654.036 55.0416 657.015 48.1934 652.836C45.443 651.294 43.3131 648.844 42.1675 645.907C40.0645 649.007 38.3524 652.094 38.3524 652.094C39.743 655.317 42.0552 658.056 44.9984 659.967C49.9189 663.162 52.8577 662.919 52.8577 662.919L55.0821 659.724C55.0821 659.724 55.81 659.724 58.0343 661.693C60.2587 663.661 61.4719 668.824 66.6351 671.776C71.7982 674.729 87.7864 676.441 90.2534 676.441C92.7204 676.441 93.6505 675.726 94.1493 672.396C91.7497 672.504 88.6087 672.504 85.5351 672.262Z" fill="white"/>
<path d="M101.051 469.295L136.937 545.434C136.937 545.434 134.012 562.285 137.665 574.728C141.318 587.171 159.234 621.237 159.234 621.237L161.068 626.737L176.449 619.04C176.449 619.04 166.932 588.654 164.735 576.562C162.537 564.469 164.371 547.996 160.69 536.645C157.01 525.294 145.309 468.567 145.309 468.567L101.051 469.295Z" fill="#263238"/>
<path d="M182.853 623.704C182.853 623.704 184.888 611.315 186.506 611.315C188.124 611.315 194.595 612.528 191.993 616.599C189.391 620.671 183.904 631.01 183.904 631.01L182.853 623.704Z" fill="#7D7D7D"/>
<path d="M181.613 612.825L152.319 626.373L170.262 656.031C170.891 659.936 172.001 663.748 173.565 667.382C175.762 671.776 176.854 673.61 176.854 673.61L192.599 668.487C192.599 668.487 192.599 665.926 194.433 665.562C195.375 665.435 196.331 665.463 197.264 665.643C198.835 665.905 200.448 665.664 201.874 664.955C207.738 662.043 222.662 654.615 225.29 653.146C228.593 651.312 228.863 646.513 227.757 644.68C226.652 642.847 222.999 640.636 219.332 640.636C215.665 640.636 201.807 642.469 196.63 641C191.454 639.53 190.402 640.272 188.205 637.71C186.007 635.149 181.613 612.825 181.613 612.825Z" fill="#7D7D7D"/>
<path d="M225.29 653.146C228.256 650.544 228.876 646.068 227.595 644.451C219.7 650.601 211.102 655.791 201.982 659.913C184.457 667.853 177.555 667.853 174.036 668.285C175.924 672.005 175.384 673.421 176.881 673.677C189.014 675.187 192.626 668.554 192.626 668.554C192.626 668.554 192.626 665.993 194.46 665.629C195.352 665.481 196.263 665.481 197.156 665.629C198.922 665.899 202.548 666.438 204.112 665.629C210.178 662.596 219.251 658.471 225.29 653.146Z" fill="white"/>
<path d="M149.03 343.856C149.03 343.856 165.206 431.212 171.003 448.791C174.416 458.748 176.748 469.044 177.959 479.5L150.849 482.061L149.03 343.856Z" fill="#7D7D7D"/>
<path d="M117.525 307.229C117.525 307.229 105.392 319.685 96.2928 344.584C87.1933 369.483 81.2752 436.335 79.0778 448.386C76.8805 460.438 75.775 477.775 77.9724 478.502C80.1698 479.23 113.872 489.125 132.907 489.125C151.941 489.125 162.942 489.489 162.942 486.928C162.942 484.367 158.897 372.018 155.244 352.97C151.591 333.921 146.091 332.101 140.24 320.737C134.389 309.373 117.525 307.229 117.525 307.229Z" fill="#7D7D7D"/>
<path d="M148.288 329.54C145.052 322.715 140.976 316.32 136.155 310.505C128.458 301.352 122.971 292.185 118.212 295.123C113.454 298.062 108.682 304.277 109.787 308.308C110.892 312.338 132.974 322.611 137.665 325.496C142.356 328.381 147.196 333.962 148.288 329.54Z" fill="white"/>
<path d="M149.151 337.008C149.151 337.008 136.088 329.297 126.368 332.964C120.072 335.569 114.455 339.581 109.949 344.692L106.592 331.279C106.592 331.279 119.992 320.899 129.712 320.899C139.431 320.899 146.765 326.615 149.151 337.008Z" fill="#263238"/>
<path d="M204.206 357.095L202.44 355.747L219.251 326.722C219.33 326.586 219.437 326.468 219.565 326.376C219.693 326.285 219.839 326.222 219.993 326.191C220.148 326.16 220.307 326.163 220.46 326.199C220.613 326.235 220.757 326.303 220.882 326.399V326.399C221.097 326.56 221.245 326.796 221.297 327.059C221.349 327.323 221.302 327.597 221.165 327.828L204.206 357.095Z" fill="#263238"/>
<path d="M185.805 365.844C188.232 363.917 189.956 361.245 190.712 358.24C191.656 353.576 192.694 346.687 194.487 345.178C196.28 343.668 203.923 341.133 205.137 340.621C206.35 340.109 208.79 340.621 207.347 344.099C205.905 347.577 200.863 348.723 200.863 348.723L206.97 351.837C206.97 351.837 210.65 344.733 211.729 344.962C212.807 345.191 213.225 346.755 213.94 350.637C214.654 354.52 213.198 356.03 211.176 358.726C209.154 361.422 209.504 363.242 207.846 365.898C206.188 368.553 193.637 376.723 192.074 377.208C190.51 377.693 185.805 365.844 185.805 365.844Z" fill="white"/>
<path d="M123.753 339.098C123.753 339.098 117.889 347.887 123.753 363.269C129.617 378.65 142.437 419.295 146.832 418.54C151.227 417.785 195.538 384.474 196.266 381.185C196.994 377.895 187.477 366.167 186.385 365.008C185.293 363.848 177.218 370.494 171.731 372.692C166.245 374.889 157.819 379.419 157.819 379.419C157.819 379.419 153.424 341.673 146.832 335.107C140.24 328.542 133.271 332.546 132.179 332.91" fill="#7D7D7D"/>
<path d="M184.187 391.471L179.051 383.409L183.81 379.742L188.582 388.168L184.187 391.471Z" fill="white"/>
<path d="M108.156 329.243C108.547 330.699 108.52 356.65 107.428 382.6C106.336 408.551 100.849 437.386 98.2879 448.764C95.7266 460.142 89.1479 461.544 77.8241 460.816C66.5002 460.088 50.4042 457.162 43.0976 451.312C35.791 445.461 36.519 432.681 40.5363 422.072C44.5535 411.463 50.7412 377.855 50.7412 363.606C50.7412 353.199 51.8332 342.239 55.3516 332.398C61.2562 315.978 74.5752 316.059 89.8355 316.544C98.5845 316.828 105.729 320.306 108.156 329.243Z" fill="#7E57C2"/>
<path d="M107.212 326.588C104.179 319.618 97.6543 316.801 89.8625 316.544C74.5753 316.046 61.2563 315.978 55.3787 332.398C51.8602 342.239 50.7682 353.199 50.7682 363.606C50.7682 377.855 44.5536 411.476 40.5363 422.072C36.7482 432.061 35.8855 443.978 41.8844 450.22C40.6172 444.827 43.1516 433.463 50.7548 415.493C59.8947 393.924 59.1668 357.391 59.1668 357.391C59.1668 357.391 59.1667 332.897 62.0921 327.046C65.0174 321.195 76.3413 321.937 93.5158 323.757C98.1689 324.211 102.76 325.16 107.212 326.588V326.588Z" fill="#7E57C2"/>
<path d="M107.792 335.458L108.358 334.959C108.39 333.052 108.322 331.144 108.156 329.243C105.729 320.306 98.5845 316.828 89.8624 316.544C74.5752 316.046 61.2562 315.978 55.3786 332.398C51.8601 342.239 50.7682 353.199 50.7682 363.606C50.6813 368.21 50.3303 372.806 49.7167 377.37C52.0354 378.92 55.446 380.538 56.6188 377.491C58.4522 372.732 60.6631 342.441 61.7415 333.625C62.82 324.808 74.1573 325.226 87.692 327.046C101.227 328.866 107.792 335.458 107.792 335.458Z" fill="#263238"/>
<path d="M75.9908 416.963L73.4294 376.386L93.8933 378.219L91.3454 418.783L75.9908 416.963Z" fill="white"/>
<path d="M62.8335 412.581L63.1975 388.815L82.9333 392.104L80.372 418.419L62.8335 412.581Z" fill="white"/>
<path d="M100.108 410.425C72.3374 413.35 57.3468 406.03 57.3468 406.03C57.3468 406.03 48.9483 429.068 46.3869 437.831C43.8256 446.593 48.9483 448.427 60.6361 452.458C72.324 456.488 89.8759 460.128 93.1652 453.914C96.4545 447.699 100.108 410.425 100.108 410.425Z" fill="#263238"/>
</g>
<defs>
<filter id="filter0_f_1_5" x="-168.788" y="441.475" width="471.576" height="525.56" filterUnits="userSpaceOnUse" color-interpolation-filters="sRGB">
<feFlood flood-opacity="0" result="BackgroundImageFix"/>
<feBlend mode="normal" in="SourceGraphic" in2="BackgroundImageFix" result="shape"/>
<feGaussianBlur stdDeviation="60.323" result="effect1_foregroundBlur_1_5"/>
</filter>
<filter id="filter1_f_1_5" x="-406.051" y="130.203" width="671.103" height="727.621" filterUnits="userSpaceOnUse" color-interpolation-filters="sRGB">
<feFlood flood-opacity="0" result="BackgroundImageFix"/>
<feBlend mode="normal" in="SourceGraphic" in2="BackgroundImageFix" result="shape"/>
<feGaussianBlur stdDeviation="60.323" result="effect1_foregroundBlur_1_5"/>
</filter>
<filter id="filter2_f_1_5" x="775.189" y="-1.95189" width="1291.42" height="1399.02" filterUnits="userSpaceOnUse" color-interpolation-filters="sRGB">
<feFlood flood-opacity="0" result="BackgroundImageFix"/>
<feBlend mode="normal" in="SourceGraphic" in2="BackgroundImageFix" result="shape"/>
<feGaussianBlur stdDeviation="60.323" result="effect1_foregroundBlur_1_5"/>
</filter>
<filter id="filter3_f_1_5" x="576.63" y="319.308" width="721.648" height="344.48" filterUnits="userSpaceOnUse" color-interpolation-filters="sRGB">
<feFlood flood-opacity="0" result="BackgroundImageFix"/>
<feBlend mode="normal" in="SourceGraphic" in2="BackgroundImageFix" result="shape"/>
<feGaussianBlur stdDeviation="75.9623" result="effect1_foregroundBlur_1_5"/>
</filter>
<filter id="filter4_ddd_1_5" x="771.889" y="402" width="345.63" height="90" filterUnits="userSpaceOnUse" color-interpolation-filters="sRGB">
<feFlood flood-opacity="0" result="BackgroundImageFix"/>
<feColorMatrix in="SourceAlpha" type="matrix" values="0 0 0 0 0 0 0 0 0 0 0 0 0 0 0 0 0 0 127 0" result="hardAlpha"/>
<feOffset dy="4"/>
<feGaussianBlur stdDeviation="2"/>
<feComposite in2="hardAlpha" operator="out"/>
<feColorMatrix type="matrix" values="0 0 0 0 0 0 0 0 0 0 0 0 0 0 0 0 0 0 0.25 0"/>
<feBlend mode="normal" in2="BackgroundImageFix" result="effect1_dropShadow_1_5"/>
<feColorMatrix in="SourceAlpha" type="matrix" values="0 0 0 0 0 0 0 0 0 0 0 0 0 0 0 0 0 0 127 0" result="hardAlpha"/>
<feOffset dy="4"/>
<feGaussianBlur stdDeviation="2"/>
<feComposite in2="hardAlpha" operator="out"/>
<feColorMatrix type="matrix" values="0 0 0 0 0 0 0 0 0 0 0 0 0 0 0 0 0 0 0.25 0"/>
<feBlend mode="normal" in2="effect1_dropShadow_1_5" result="effect2_dropShadow_1_5"/>
<feColorMatrix in="SourceAlpha" type="matrix" values="0 0 0 0 0 0 0 0 0 0 0 0 0 0 0 0 0 0 127 0" result="hardAlpha"/>
<feOffset dx="3" dy="4"/>
<feGaussianBlur stdDeviation="5.5"/>
<feComposite in2="hardAlpha" operator="out"/>
<feColorMatrix type="matrix" values="0 0 0 0 0 0 0 0 0 0 0 0 0 0 0 0 0 0 0.25 0"/>
<feBlend mode="normal" in2="effect2_dropShadow_1_5" result="effect3_dropShadow_1_5"/>
<feBlend mode="normal" in="SourceGraphic" in2="effect3_dropShadow_1_5" result="shape"/>
</filter>
<filter id="filter5_b_1_5" x="747.064" y="376.175" width="389.279" height="133.649" filterUnits="userSpaceOnUse" color-interpolation-filters="sRGB">
<feFlood flood-opacity="0" result="BackgroundImageFix"/>
<feGaussianBlur in="BackgroundImage" stdDeviation="16.4123"/>
<feComposite in2="SourceAlpha" operator="in" result="effect1_backgroundBlur_1_5"/>
<feBlend mode="normal" in="SourceGraphic" in2="effect1_backgroundBlur_1_5" result="shape"/>
</filter>
<filter id="filter6_d_1_5" x="816.053" y="428.834" width="260.299" height="25.5996" filterUnits="userSpaceOnUse" color-interpolation-filters="sRGB">
<feFlood flood-opacity="0" result="BackgroundImageFix"/>
<feColorMatrix in="SourceAlpha" type="matrix" values="0 0 0 0 0 0 0 0 0 0 0 0 0 0 0 0 0 0 127 0" result="hardAlpha"/>
<feOffset dx="2.37037" dy="1.18519"/>
<feGaussianBlur stdDeviation="0.592593"/>
<feComposite in2="hardAlpha" operator="out"/>
<feColorMatrix type="matrix" values="0 0 0 0 0.843164 0 0 0 0 0.474152 0 0 0 0 0.739841 0 0 0 0.21 0"/>
<feBlend mode="normal" in2="BackgroundImageFix" result="effect1_dropShadow_1_5"/>
<feBlend mode="normal" in="SourceGraphic" in2="effect1_dropShadow_1_5" result="shape"/>
</filter>
<filter id="filter7_d_1_5" x="750.038" y="150.075" width="426.204" height="190.581" filterUnits="userSpaceOnUse" color-interpolation-filters="sRGB">
<feFlood flood-opacity="0" result="BackgroundImageFix"/>
<feColorMatrix in="SourceAlpha" type="matrix" values="0 0 0 0 0 0 0 0 0 0 0 0 0 0 0 0 0 0 127 0" result="hardAlpha"/>
<feOffset dx="8" dy="4"/>
<feGaussianBlur stdDeviation="2"/>
<feComposite in2="hardAlpha" operator="out"/>
<feColorMatrix type="matrix" values="0 0 0 0 0.843164 0 0 0 0 0.474152 0 0 0 0 0.739841 0 0 0 0.21 0"/>
<feBlend mode="normal" in2="BackgroundImageFix" result="effect1_dropShadow_1_5"/>
<feBlend mode="normal" in="SourceGraphic" in2="effect1_dropShadow_1_5" result="shape"/>
</filter>
<linearGradient id="paint0_linear_1_5" x1="-0.0199334" y1="719.996" x2="615.293" y2="-373.897" gradientUnits="userSpaceOnUse">
<stop stop-color="#000B2A"/>
<stop offset="1" stop-color="#011E4C"/>
</linearGradient>
<radialGradient id="paint1_radial_1_5" cx="0" cy="0" r="1" gradientUnits="userSpaceOnUse" gradientTransform="translate(22.7168 753.36) rotate(-77.8648) scale(76.1853 74.6191)">
<stop stop-color="#444CE4"/>
<stop offset="1" stop-color="#F257A0"/>
</radialGradient>
<radialGradient id="paint2_radial_1_5" cx="0" cy="0" r="1" gradientUnits="userSpaceOnUse" gradientTransform="translate(43.0979 471.402) rotate(156.091) scale(201.377 213.361)">
<stop stop-color="#FFD7D7"/>
<stop offset="0.0001"/>
<stop offset="0.778467" stop-color="#6343FF"/>
<stop offset="1" stop-color="#484EB7" stop-opacity="0"/>
<stop offset="1" stop-color="#EE8969" stop-opacity="0"/>
</radialGradient>
<radialGradient id="paint3_radial_1_5" cx="0" cy="0" r="1" gradientUnits="userSpaceOnUse" gradientTransform="translate(1656.06 541.786) rotate(133.863) scale(481.12 518.147)">
<stop stop-color="#FFD7D7"/>
<stop offset="0.0001"/>
<stop offset="0.778467" stop-color="#6343FF"/>
<stop offset="1" stop-color="#484EB7" stop-opacity="0"/>
<stop offset="1" stop-color="#EE8969" stop-opacity="0"/>
</radialGradient>
<radialGradient id="paint4_radial_1_5" cx="0" cy="0" r="1" gradientUnits="userSpaceOnUse" gradientTransform="translate(854.919 487.966) rotate(-9.59641) scale(85.3597 39.1326)">
<stop stop-color="#444CE4"/>
<stop offset="1" stop-color="#F257A0"/>
</radialGradient>
<linearGradient id="paint5_linear_1_5" x1="787.504" y1="417" x2="1103.72" y2="425.159" gradientUnits="userSpaceOnUse">
<stop stop-color="#F6E18D"/>
<stop offset="0.557292" stop-color="#7F58C8"/>
<stop offset="1" stop-color="#FF258E"/>
</linearGradient>
<clipPath id="clip0_1_5">
<rect width="1280" height="720" rx="20" fill="white"/>
</clipPath>
</defs>
</svg>
